<?xml version="1.0" encoding="UTF-8"?>
<svg width="24px" height="24px" viewBox="0 0 24 24" version="1.1" xmlns="http://www.w3.org/2000/svg" xmlns:xlink="http://www.w3.org/1999/xlink">
    <!-- Generator: sketchtool 51 (57462) - http://www.bohemiancoding.com/sketch -->
    <title>action-power-settings-new</title>
    <desc>Created with sketchtool.</desc>
    <defs>
        <path d="M12.0017964,3.00273013 C11.4517964,3.00273013 11.0017964,3.45273013 11.0017964,4.00273013 L11.0017964,12.0027301 C11.0017964,12.5527301 11.4517964,13.0027301 12.0017964,13.0027301 C12.5517964,13.0027301 13.0017964,12.5527301 13.0017964,12.0027301 L13.0017964,4.00273013 C13.0017964,3.45273013 12.5517964,3.00273013 12.0017964,3.00273013 Z M17.1417964,5.86273013 C16.7517964,6.25273013 16.7617964,6.86273013 17.1317964,7.25273013 C18.2617964,8.45273013 18.9617964,10.0527301 19.0017964,11.8227301 C19.0917964,15.6527301 15.9217964,18.9527301 12.0917964,18.9927301 C8.18179637,19.0527301 5.00179637,15.9027301 5.00179637,12.0027301 C5.00179637,10.1627301 5.71179637,8.49273013 6.87179637,7.24273013 C7.24179637,6.85273013 7.24179637,6.24273013 6.86179637,5.86273013 C6.46179637,5.46273013 5.81179637,5.47273013 5.43179637,5.88273013 C3.98179637,7.42273013 3.07179637,9.47273013 3.00179637,11.7427301 C2.86179637,16.6227301 6.83179637,20.8427301 11.7117964,20.9927301 C16.8117964,21.1527301 21.0017964,17.0627301 21.0017964,11.9927301 C21.0017964,9.62273013 20.0817964,7.48273013 18.5817964,5.88273013 C18.2017964,5.47273013 17.5417964,5.46273013 17.1417964,5.86273013 Z" id="path-1"></path>
    </defs>
    <g id="Icons" stroke="none" stroke-width="1" fill="none" fill-rule="evenodd">
        <g id="action-power-settings-new">
            <mask id="mask-2" fill="white">
                <use xlink:href="#path-1"></use>
            </mask>
            <use id="icon_action_power_settings_new_24px" fill="#000000" fill-rule="nonzero" xlink:href="#path-1"></use>
        </g>
    </g>
</svg>