<?xml version="1.0" encoding="UTF-8"?>
<svg width="24px" height="24px" viewBox="0 0 24 24" version="1.1" xmlns="http://www.w3.org/2000/svg" xmlns:xlink="http://www.w3.org/1999/xlink">
    <!-- Generator: sketchtool 51 (57462) - http://www.bohemiancoding.com/sketch -->
    <title>action-range</title>
    <desc>Created with sketchtool.</desc>
    <defs>
        <path d="M6.8825,6.2313904 C6.4525,5.8813904 5.8225,5.9313904 5.4725,6.3613904 L1.2325,11.4713904 C0.9225,11.8413904 0.9225,12.3813904 1.2325,12.7513904 L5.4725,17.8613904 C5.8225,18.2913904 6.4525,18.3413904 6.8825,17.9913904 C7.3125,17.6413904 7.3625,17.0113904 7.0125,16.5813904 L3.3025,12.1113904 L7.0125,7.6413904 C7.3625,7.2113904 7.3125,6.5813904 6.8825,6.2313904 Z M6.8825,13.1113904 L8.8825,13.1113904 L8.8825,11.1113904 L6.8825,11.1113904 L6.8825,13.1113904 Z M16.8825,11.1113904 L14.8825,11.1113904 L14.8825,13.1113904 L16.8825,13.1113904 L16.8825,11.1113904 Z M10.8825,13.1113904 L12.8825,13.1113904 L12.8825,11.1113904 L10.8825,11.1113904 L10.8825,13.1113904 Z M16.8825,6.2313904 C16.4525,6.5813904 16.4025,7.2113904 16.7525,7.6413904 L20.4625,12.1113904 L16.7525,16.5813904 C16.4025,17.0113904 16.4625,17.6413904 16.8825,17.9913904 C17.3125,18.3413904 17.9425,18.2913904 18.2925,17.8613904 L22.5325,12.7513904 C22.8425,12.3813904 22.8425,11.8413904 22.5325,11.4713904 L18.2925,6.3613904 C17.9425,5.9413904 17.3025,5.8813904 16.8825,6.2313904 Z" id="path-1"></path>
    </defs>
    <g id="Icons" stroke="none" stroke-width="1" fill="none" fill-rule="evenodd">
        <g id="action-range">
            <mask id="mask-2" fill="white">
                <use xlink:href="#path-1"></use>
            </mask>
            <use id="icon_action_range_24px" fill="#000000" fill-rule="nonzero" xlink:href="#path-1"></use>
        </g>
    </g>
</svg>