<?xml version="1.0" encoding="UTF-8"?>
<svg width="24px" height="24px" viewBox="0 0 24 24" version="1.1" xmlns="http://www.w3.org/2000/svg" xmlns:xlink="http://www.w3.org/1999/xlink">
    <!-- Generator: sketchtool 51 (57462) - http://www.bohemiancoding.com/sketch -->
    <title>action-install</title>
    <desc>Created with sketchtool.</desc>
    <defs>
        <path d="M16.5857864,10 C16.8510029,10 17.1053568,10.1053568 17.2928932,10.2928932 C17.6834175,10.6834175 17.6834175,11.3165825 17.2928932,11.7071068 L12.7071068,16.2928932 C12.3165825,16.6834175 11.6834175,16.6834175 11.2928932,16.2928932 L6.70710678,11.7071068 C6.5195704,11.5195704 6.41421356,11.2652165 6.41421356,11 C6.41421356,10.4477153 6.86192881,10 7.41421356,10 L9,10 L9,5 C9,4.44771525 9.44771525,4 10,4 L14,4 C14.5522847,4 15,4.44771525 15,5 L15,10 L16.5857864,10 Z M11,12 L10.0714214,12 C10.0448997,12 10.0194643,12.0105357 10.0007107,12.0292893 C9.96165825,12.0683418 9.96165825,12.1316582 10.0007107,12.1707107 L11.9292893,14.0992893 C11.9683418,14.1383418 12.0316582,14.1383418 12.0707107,14.0992893 L13.9992893,12.1707107 C14.018043,12.151957 14.0285786,12.1265216 14.0285786,12.1 C14.0285786,12.0447715 13.9838071,12 13.9285786,12 L13,12 L13,6.1 C13,6.04477153 12.9552285,6 12.9,6 L11.1,6 C11.0447715,6 11,6.04477153 11,6.1 L11,12 Z M18,20 L6,20 C5.44771525,20 5,19.5522847 5,19 C5,18.4477153 5.44771525,18 6,18 L18,18 C18.5522847,18 19,18.4477153 19,19 C19,19.5522847 18.5522847,20 18,20 Z" id="path-1"></path>
    </defs>
    <g id="Icons" stroke="none" stroke-width="1" fill="none" fill-rule="evenodd">
        <g id="action-install">
            <mask id="mask-2" fill="white">
                <use xlink:href="#path-1"></use>
            </mask>
            <use id="icon_action_install_24px" fill="#000000" fill-rule="nonzero" xlink:href="#path-1"></use>
        </g>
    </g>
</svg>