<?xml version="1.0" encoding="UTF-8"?>
<svg width="24px" height="24px" viewBox="0 0 24 24" version="1.1" xmlns="http://www.w3.org/2000/svg" xmlns:xlink="http://www.w3.org/1999/xlink">
    <!-- Generator: sketchtool 51 (57462) - http://www.bohemiancoding.com/sketch -->
    <title>action-dashboard-Inactive</title>
    <desc>Created with sketchtool.</desc>
    <defs>
        <path d="M4,13 L10,13 C10.55,13 11,12.55 11,12 L11,4 C11,3.45 10.55,3 10,3 L4,3 C3.45,3 3,3.45 3,4 L3,12 C3,12.55 3.45,13 4,13 Z M19,13 L19,19 L15,19 L15,13 L19,13 Z M4,21 L10,21 C10.55,21 11,20.55 11,20 L11,16 C11,15.45 10.55,15 10,15 L4,15 C3.45,15 3,15.45 3,16 L3,20 C3,20.55 3.45,21 4,21 Z M9,17 L9,19 L5,19 L5,17 L9,17 Z M14,21 L20,21 C20.55,21 21,20.55 21,20 L21,12 C21,11.45 20.55,11 20,11 L14,11 C13.45,11 13,11.45 13,12 L13,20 C13,20.55 13.45,21 14,21 Z M9,5 L9,11 L5,11 L5,5 L9,5 Z M13,4 L13,8 C13,8.55 13.45,9 14,9 L20,9 C20.55,9 21,8.55 21,8 L21,4 C21,3.45 20.55,3 20,3 L14,3 C13.45,3 13,3.45 13,4 Z M19,5 L19,7 L15,7 L15,5 L19,5 Z" id="path-1"></path>
    </defs>
    <g id="Icons" stroke="none" stroke-width="1" fill="none" fill-rule="evenodd">
        <g id="action-dashboard-Inactive">
            <mask id="mask-2" fill="white">
                <use xlink:href="#path-1"></use>
            </mask>
            <use id="icon_action_dashboard_24px" fill="#000000" fill-rule="nonzero" xlink:href="#path-1"></use>
        </g>
    </g>
</svg>