<?xml version="1.0" encoding="UTF-8"?>
<svg width="24px" height="24px" viewBox="0 0 24 24" version="1.1" xmlns="http://www.w3.org/2000/svg" xmlns:xlink="http://www.w3.org/1999/xlink">
    <!-- Generator: sketchtool 51 (57462) - http://www.bohemiancoding.com/sketch -->
    <title>action-pulse</title>
    <desc>Created with sketchtool.</desc>
    <defs>
        <path d="M20.9189189,11.5071621 C21.5157526,11.5071621 22,11.9914095 22,12.5882432 C22,13.1850769 21.5157526,13.6693243 20.9189189,13.6693243 L17.6627027,13.6693243 C17.2010549,13.6693243 16.7902341,13.3762793 16.640537,12.9401578 L15.5059822,9.64534992 L12.620398,18.0276221 C12.4701435,18.4637923 12.0594357,18.7567567 11.5982432,18.7567567 C11.1369251,18.7567567 10.7262516,18.4636619 10.5760672,18.0271549 L8.09588201,10.8218272 L7.36634393,12.9401897 C7.21604867,13.3764784 6.80566179,13.6693243 6.34418919,13.6693243 L3.08108108,13.6693243 C2.48424736,13.6693243 2,13.1850769 2,12.5882432 C2,11.9914095 2.48424736,11.5071621 3.08108108,11.5071621 L5.5733022,11.5071621 L7.07419661,7.14845894 C7.22449187,6.71217018 7.63487875,6.4193243 8.09635135,6.4193243 C8.55782395,6.4193243 8.96821083,6.71217018 9.11853814,7.14855202 L11.5979175,14.3544091 L14.4837912,5.97237786 C14.6340865,5.5360891 15.0444733,5.24324322 15.5059459,5.24324322 C15.9674663,5.24324322 16.3782264,5.53613438 16.5285225,5.97242546 L18.4340073,11.5071621 L20.9189189,11.5071621 Z" id="path-1"></path>
    </defs>
    <g id="Icons" stroke="none" stroke-width="1" fill="none" fill-rule="evenodd">
        <g id="action-pulse">
            <mask id="mask-2" fill="white">
                <use xlink:href="#path-1"></use>
            </mask>
            <use id="icon_action_pulse_24px" fill="#000000" fill-rule="nonzero" xlink:href="#path-1"></use>
        </g>
    </g>
</svg>