<?xml version="1.0" encoding="UTF-8"?>
<svg width="24px" height="24px" viewBox="0 0 24 24" version="1.1" xmlns="http://www.w3.org/2000/svg" xmlns:xlink="http://www.w3.org/1999/xlink">
    <!-- Generator: sketchtool 51 (57462) - http://www.bohemiancoding.com/sketch -->
    <title>action-subject</title>
    <desc>Created with sketchtool.</desc>
    <defs>
        <path d="M13,17 L5,17 C4.45,17 4,17.45 4,18 C4,18.55 4.45,19 5,19 L13,19 C13.55,19 14,18.55 14,18 C14,17.45 13.55,17 13,17 Z M19,9 L5,9 C4.45,9 4,9.45 4,10 C4,10.55 4.45,11 5,11 L19,11 C19.55,11 20,10.55 20,10 C20,9.45 19.55,9 19,9 Z M5,15 L19,15 C19.55,15 20,14.55 20,14 C20,13.45 19.55,13 19,13 L5,13 C4.45,13 4,13.45 4,14 C4,14.55 4.45,15 5,15 Z M4,6 C4,6.55 4.45,7 5,7 L19,7 C19.55,7 20,6.55 20,6 C20,5.45 19.55,5 19,5 L5,5 C4.45,5 4,5.45 4,6 Z" id="path-1"></path>
    </defs>
    <g id="Icons" stroke="none" stroke-width="1" fill="none" fill-rule="evenodd">
        <g id="action-subject">
            <mask id="mask-2" fill="white">
                <use xlink:href="#path-1"></use>
            </mask>
            <use id="icon_action_subject_24px" fill="#000000" fill-rule="nonzero" xlink:href="#path-1"></use>
        </g>
    </g>
</svg>