<?xml version="1.0" encoding="UTF-8"?>
<svg width="24px" height="24px" viewBox="0 0 24 24" version="1.1" xmlns="http://www.w3.org/2000/svg" xmlns:xlink="http://www.w3.org/1999/xlink">
    <!-- Generator: sketchtool 51 (57462) - http://www.bohemiancoding.com/sketch -->
    <title>action-done-all</title>
    <desc>Created with sketchtool.</desc>
    <defs>
        <path d="M17.265,6.00438115 C17.0781685,5.81712847 16.8245177,5.71189554 16.56,5.71189554 C16.2954824,5.71189554 16.0418315,5.81712847 15.855,6.00438115 L10.215,11.6443811 L11.625,13.0543811 L17.265,7.40438115 C17.645,7.02438115 17.645,6.38438115 17.265,6.00438115 Z M21.505,5.99438115 L11.625,15.8743811 L8.14500002,12.4043811 C7.95816849,12.2171285 7.70451766,12.1118955 7.44000002,12.1118955 C7.17548238,12.1118955 6.92183155,12.2171285 6.73500002,12.4043811 C6.34500002,12.7943811 6.34500002,13.4243811 6.73500002,13.8143811 L10.915,17.9943811 C11.305,18.3843811 11.935,18.3843811 12.325,17.9943811 L22.915,7.41438115 C23.305,7.02438115 23.305,6.39438115 22.915,6.00438115 L22.905,6.00438115 C22.525,5.60438115 21.895,5.60438115 21.505,5.99438115 Z M1.08500002,13.8243811 L5.26500002,18.0043811 C5.65500002,18.3943811 6.28500002,18.3943811 6.67500002,18.0043811 L7.37500002,17.3043811 L2.49500002,12.4043811 C2.30816849,12.2171285 2.05451766,12.1118955 1.79000002,12.1118955 C1.52548238,12.1118955 1.27183155,12.2171285 1.08500002,12.4043811 C0.695000019,12.7943811 0.695000019,13.4343811 1.08500002,13.8243811 Z" id="path-1"></path>
    </defs>
    <g id="Icons" stroke="none" stroke-width="1" fill="none" fill-rule="evenodd">
        <g id="action-done-all">
            <mask id="mask-2" fill="white">
                <use xlink:href="#path-1"></use>
            </mask>
            <use id="icon_action_done_all_24px" fill="#000000" fill-rule="nonzero" xlink:href="#path-1"></use>
        </g>
    </g>
</svg>