<?xml version="1.0" encoding="UTF-8"?>
<svg width="24px" height="24px" viewBox="0 0 24 24" version="1.1" xmlns="http://www.w3.org/2000/svg" xmlns:xlink="http://www.w3.org/1999/xlink">
    <!-- Generator: sketchtool 51 (57462) - http://www.bohemiancoding.com/sketch -->
    <title>action-label-add</title>
    <desc>Created with sketchtool.</desc>
    <defs>
        <path d="M10.0917716,16.1023182 C10.0912696,16.6546028 9.64314749,17.1019108 9.09086297,17.1014087 L3.9525832,17.0967376 C2.83322492,17.0967376 1.91738632,16.191075 1.91738632,15.0717167 L1.91738632,4.89573227 C1.91738632,3.77637398 2.83322492,2.87071137 3.9525832,2.87071137 L15.146166,2.86053539 C15.827957,2.86053539 16.4385161,3.19634287 16.8048515,3.71531808 L20.2557943,8.57801023 C20.5754275,9.02840239 20.4694263,9.65263123 20.0190342,9.97226438 C19.5685569,10.291958 18.944243,10.1861876 18.6242056,9.73595453 C16.3138456,6.48567087 15.1550992,4.86053507 15.1479842,4.86053456 C7.66091896,4.87750059 3.91738632,4.88923316 3.91738632,4.89573227 C3.92763851,11.6964025 3.93997687,15.0967378 3.95440138,15.0967384 L9.09268115,15.1014096 C9.64496567,15.1019116 10.0922737,15.5500337 10.0917716,16.1023182 Z M18.0826137,15.1394646 L21.0826137,15.1394646 C21.6326137,15.1394646 22.0826137,15.5894646 22.0826137,16.1394646 C22.0826137,16.6894646 21.6326137,17.1394646 21.0826137,17.1394646 L18.0826137,17.1394646 L18.0826137,20.1394646 C18.0826137,20.6894646 17.6326137,21.1394646 17.0826137,21.1394646 C16.5326137,21.1394646 16.0826137,20.6894646 16.0826137,20.1394646 L16.0826137,17.1394646 L13.0826137,17.1394646 C12.5326137,17.1394646 12.0826137,16.6894646 12.0826137,16.1394646 C12.0826137,15.5894646 12.5326137,15.1394646 13.0826137,15.1394646 L16.0826137,15.1394646 L16.0826137,12.1394646 C16.0826137,11.5894646 16.5326137,11.1394646 17.0826137,11.1394646 C17.6326137,11.1394646 18.0826137,11.5894646 18.0826137,12.1394646 L18.0826137,15.1394646 Z" id="path-1"></path>
    </defs>
    <g id="Icons" stroke="none" stroke-width="1" fill="none" fill-rule="evenodd">
        <g id="action-label-add">
            <mask id="mask-2" fill="white">
                <use xlink:href="#path-1"></use>
            </mask>
            <use id="icon_action_label_add_24px" fill="#000000" xlink:href="#path-1"></use>
        </g>
    </g>
</svg>