<?xml version="1.0" encoding="UTF-8"?>
<svg width="24px" height="24px" viewBox="0 0 24 24" version="1.1" xmlns="http://www.w3.org/2000/svg" xmlns:xlink="http://www.w3.org/1999/xlink">
    <!-- Generator: sketchtool 51 (57462) - http://www.bohemiancoding.com/sketch -->
    <title>action-schedule-start</title>
    <desc>Created with sketchtool.</desc>
    <defs>
        <path d="M10.5236415,21.8693303 C9.97729004,21.7885928 9.59983537,21.2802367 9.68057288,20.7338853 C9.76131039,20.1875338 10.2696664,19.8100792 10.8160179,19.8908167 C11.2023824,19.947912 11.5947084,19.9767896 11.9910232,19.9767896 C16.4016689,19.9767896 19.9767896,16.4041362 19.9767896,12 C19.9767896,7.59586375 16.4016689,4.02321036 11.9910232,4.02321036 C7.59014077,4.02321036 4.02321036,7.59507428 4.02321036,12 C4.02321036,12.8283388 4.14907355,13.63861 4.39354965,14.4113235 C4.56014575,14.9378823 4.26833832,15.4997954 3.7417795,15.6663915 C3.21522069,15.8329876 2.65330761,15.5411801 2.48671151,15.0146213 C2.18067389,14.047331 2.02321036,13.0336258 2.02321036,12 C2.02321036,6.49112313 6.48495198,2.02321036 11.9910232,2.02321036 C17.5059295,2.02321036 21.9767896,6.49098505 21.9767896,12 C21.9767896,17.509015 17.5059295,21.9767896 11.9910232,21.9767896 C11.496777,21.9767896 11.0067308,21.9407192 10.5236415,21.8693303 Z M11.78,7 L11.72,7 C11.32,7 11,7.32 11,7.72 L11,12.44 C11,12.79 11.18,13.12 11.49,13.3 L15.64,15.79 C15.98,15.99 16.42,15.89 16.62,15.55 C16.83,15.21 16.72,14.76 16.37,14.56 L12.5,12.26 L12.5,7.72 C12.5,7.32 12.18,7 11.78,7 Z M5.05463452,16.4825355 L5.05463452,20.7125355 C5.05463452,21.1025355 5.47463452,21.3425355 5.81463452,21.1425355 L9.34463452,19.0225355 C9.66463452,18.8325355 9.66463452,18.3625355 9.34463452,18.1625355 L5.81463452,16.0425355 C5.47463452,15.8525355 5.05463452,16.0925355 5.05463452,16.4825355 Z" id="path-1"></path>
    </defs>
    <g id="Icons" stroke="none" stroke-width="1" fill="none" fill-rule="evenodd">
        <g id="action-schedule-start">
            <mask id="mask-2" fill="white">
                <use xlink:href="#path-1"></use>
            </mask>
            <use id="icon_action_schedule_start_24px" fill="#000000" fill-rule="nonzero" xlink:href="#path-1"></use>
        </g>
    </g>
</svg>