<?xml version="1.0" encoding="UTF-8"?>
<svg width="24px" height="24px" viewBox="0 0 24 24" version="1.1" xmlns="http://www.w3.org/2000/svg" xmlns:xlink="http://www.w3.org/1999/xlink">
    <!-- Generator: sketchtool 51 (57462) - http://www.bohemiancoding.com/sketch -->
    <title>action-lock</title>
    <desc>Created with sketchtool.</desc>
    <defs>
        <path d="M18,9 L17,9 L17,7 C17,4.24 14.76,2 12,2 C9.24,2 7,4.24 7,7 L7,9 L6,9 C4.9,9 4,9.9 4,11 L4,21 C4,22.1 4.9,23 6,23 L18,23 C19.1,23 20,22.1 20,21 L20,11 C20,9.9 19.1,9 18,9 Z M9,7 C9,5.34 10.34,4 12,4 C13.66,4 15,5.34 15,7 L15,9 L9,9 L9,7 Z M18,21 L6,21 L6,11 L18,11 L18,21 Z M12,18 C13.1,18 14,17.1 14,16 C14,14.9 13.1,14 12,14 C10.9,14 10,14.9 10,16 C10,17.1 10.9,18 12,18 Z" id="path-1"></path>
    </defs>
    <g id="Icons" stroke="none" stroke-width="1" fill="none" fill-rule="evenodd">
        <g id="action-lock">
            <mask id="mask-2" fill="white">
                <use xlink:href="#path-1"></use>
            </mask>
            <use id="icon_action_lock_24px" fill="#000000" fill-rule="nonzero" xlink:href="#path-1"></use>
        </g>
    </g>
</svg>