<?xml version="1.0" encoding="UTF-8"?>
<svg width="24px" height="24px" viewBox="0 0 24 24" version="1.1" xmlns="http://www.w3.org/2000/svg" xmlns:xlink="http://www.w3.org/1999/xlink">
    <!-- Generator: sketchtool 51 (57462) - http://www.bohemiancoding.com/sketch -->
    <title>av-mic-none</title>
    <desc>Created with sketchtool.</desc>
    <defs>
        <path d="M11.9989356,14.5 C13.6589356,14.5 14.9989356,13.16 14.9989356,11.5 L14.9989356,5.5 C14.9989356,3.84 13.6589356,2.5 11.9989356,2.5 C10.3389356,2.5 8.99893556,3.84 8.99893556,5.5 L8.99893556,11.5 C8.99893556,13.16 10.3389356,14.5 11.9989356,14.5 Z M10.9989356,5.5 C10.9989356,4.95 11.4489356,4.5 11.9989356,4.5 C12.5489356,4.5 12.9989356,4.95 12.9989356,5.5 L12.9989356,11.5 C12.9989356,12.05 12.5489356,12.5 11.9989356,12.5 C11.4489356,12.5 10.9989356,12.05 10.9989356,11.5 L10.9989356,5.5 Z M17.9089356,11.5 C17.4189356,11.5 17.0089356,11.86 16.9289356,12.35 C16.5189356,14.7 14.4689356,16.5 11.9989356,16.5 C9.52893556,16.5 7.47893556,14.7 7.06893556,12.35 C6.98893556,11.86 6.57893556,11.5 6.08893556,11.5 C5.47893556,11.5 4.99893556,12.04 5.08893556,12.64 C5.57893556,15.64 7.97893556,17.99 10.9989356,18.42 L10.9989356,20.5 C10.9989356,21.05 11.4489356,21.5 11.9989356,21.5 C12.5489356,21.5 12.9989356,21.05 12.9989356,20.5 L12.9989356,18.42 C16.0189356,17.99 18.4189356,15.64 18.9089356,12.64 C19.0089356,12.04 18.5189356,11.5 17.9089356,11.5 Z" id="path-1"></path>
    </defs>
    <g id="Icons" stroke="none" stroke-width="1" fill="none" fill-rule="evenodd">
        <g id="av-mic-none">
            <mask id="mask-2" fill="white">
                <use xlink:href="#path-1"></use>
            </mask>
            <use id="icon_av_mic_none_24px" fill="#000000" fill-rule="nonzero" xlink:href="#path-1"></use>
        </g>
    </g>
</svg>