<?xml version="1.0" encoding="UTF-8"?>
<svg width="24px" height="24px" viewBox="0 0 24 24" version="1.1" xmlns="http://www.w3.org/2000/svg" xmlns:xlink="http://www.w3.org/1999/xlink">
    <!-- Generator: sketchtool 51 (57462) - http://www.bohemiancoding.com/sketch -->
    <title>av-repeat</title>
    <desc>Created with sketchtool.</desc>
    <defs>
        <path d="M6.79,7.29461839 L16.79,7.29461839 L16.79,9.08461839 C16.79,9.53461839 17.33,9.75461839 17.64,9.43461839 L20.43,6.64461839 C20.63,6.44461839 20.63,6.13461839 20.43,5.93461839 L17.64,3.14461839 C17.33,2.83461839 16.79,3.05461839 16.79,3.50461839 L16.79,5.29461839 L5.79,5.29461839 C5.24,5.29461839 4.79,5.74461839 4.79,6.29461839 L4.79,10.2946184 C4.79,10.8446184 5.24,11.2946184 5.79,11.2946184 C6.34,11.2946184 6.79,10.8446184 6.79,10.2946184 L6.79,7.29461839 Z M16.79,17.2946184 L6.79,17.2946184 L6.79,15.5046184 C6.79,15.0546184 6.25,14.8346184 5.94,15.1546184 L3.15,17.9446184 C2.95,18.1446184 2.95,18.4546184 3.15,18.6546184 L5.94,21.4446184 C6.25,21.7546184 6.79,21.5346184 6.79,21.0846184 L6.79,19.2946184 L17.79,19.2946184 C18.34,19.2946184 18.79,18.8446184 18.79,18.2946184 L18.79,14.2946184 C18.79,13.7446184 18.34,13.2946184 17.79,13.2946184 C17.24,13.2946184 16.79,13.7446184 16.79,14.2946184 L16.79,17.2946184 Z" id="path-1"></path>
    </defs>
    <g id="Icons" stroke="none" stroke-width="1" fill="none" fill-rule="evenodd">
        <g id="av-repeat">
            <mask id="mask-2" fill="white">
                <use xlink:href="#path-1"></use>
            </mask>
            <use id="icon_av_repeat_24px" fill="#000000" fill-rule="nonzero" xlink:href="#path-1"></use>
        </g>
    </g>
</svg>