<?xml version="1.0" encoding="UTF-8"?>
<svg width="24px" height="24px" viewBox="0 0 24 24" version="1.1" xmlns="http://www.w3.org/2000/svg" xmlns:xlink="http://www.w3.org/1999/xlink">
    <!-- Generator: sketchtool 51 (57462) - http://www.bohemiancoding.com/sketch -->
    <title>communication-chat-bubble</title>
    <desc>Created with sketchtool.</desc>
    <defs>
        <path d="M20,2 L4,2 C2.9,2 2,2.9 2,4 L2,22 L6,18 L20,18 C21.1,18 22,17.1 22,16 L22,4 C22,2.9 21.1,2 20,2 Z M19,16 L6,16 L4,18 L4,5 C4,4.45 4.45,4 5,4 L19,4 C19.55,4 20,4.45 20,5 L20,15 C20,15.55 19.55,16 19,16 Z" id="path-1"></path>
    </defs>
    <g id="Icons" stroke="none" stroke-width="1" fill="none" fill-rule="evenodd">
        <g id="communication-chat-bubble">
            <mask id="mask-2" fill="white">
                <use xlink:href="#path-1"></use>
            </mask>
            <use id="icon_communication_chat_bubble_outline_24px" fill="#000000" fill-rule="nonzero" xlink:href="#path-1"></use>
        </g>
    </g>
</svg>