<?xml version="1.0" encoding="UTF-8"?>
<svg width="24px" height="24px" viewBox="0 0 24 24" version="1.1" xmlns="http://www.w3.org/2000/svg" xmlns:xlink="http://www.w3.org/1999/xlink">
    <!-- Generator: sketchtool 51 (57462) - http://www.bohemiancoding.com/sketch -->
    <title>communication-call-split</title>
    <desc>Created with sketchtool.</desc>
    <defs>
        <path d="M2.15532824,11.1607847 L5.32778994,7.98832298 C5.66145802,7.6546549 6.22315005,7.89209268 6.22315005,8.35023255 L6.22315005,10.4808967 L10.4834324,10.4808967 L10.4834324,12.5812275 L6.22315005,12.5812275 L6.22315005,14.7118917 C6.22315005,15.1700315 5.66145802,15.4064233 5.32778994,15.0738012 L2.15532824,11.9013395 C1.94822392,11.6931892 1.94822392,11.367889 2.15532824,11.1607847 Z M12.5453738,5.98035241 L17.774235,5.98035241 L17.774235,3.89361944 C17.774235,3.43338761 18.339065,3.20327169 18.673779,3.52752594 L21.8431028,6.70730951 C22.0522991,6.91755178 22.0522991,7.24180602 21.8431028,7.4405425 L18.673779,10.6203261 C18.339065,10.9539941 17.774235,10.7134184 17.774235,10.2531866 L17.774235,8.07231529 L13.5913552,8.07231529 L13.5913552,19.5781111 C13.5913552,20.1534009 13.1206636,20.6240925 12.5453738,20.6240925 C11.970084,20.6240925 11.4993923,20.1534009 11.4993923,19.5781111 L11.4993923,7.02633385 C11.4993923,6.45104406 11.970084,5.98035241 12.5453738,5.98035241 Z" id="path-1"></path>
    </defs>
    <g id="Icons" stroke="none" stroke-width="1" fill="none" fill-rule="evenodd">
        <g id="communication-call-split">
            <mask id="mask-2" fill="white">
                <use xlink:href="#path-1"></use>
            </mask>
            <use id="Combined-Shape" fill="#000000" xlink:href="#path-1"></use>
        </g>
    </g>
</svg>