<?xml version="1.0" encoding="UTF-8"?>
<svg width="24px" height="24px" viewBox="0 0 24 24" version="1.1" xmlns="http://www.w3.org/2000/svg" xmlns:xlink="http://www.w3.org/1999/xlink">
    <!-- Generator: sketchtool 51 (57462) - http://www.bohemiancoding.com/sketch -->
    <title>content-report-gmailerrorred</title>
    <desc>Created with sketchtool.</desc>
    <defs>
        <path d="M20.7146856,7.98 L16.0346856,3.3 C15.8446856,3.11 15.5846856,3 15.3246856,3 L8.68468564,3 C8.42468564,3 8.16468564,3.11 7.98468564,3.29 L3.29468564,7.98 C3.11468564,8.16 3.00468564,8.42 3.00468564,8.68 L3.00468564,15.31 C3.00468564,15.58 3.11468564,15.83 3.29468564,16.02 L7.97468564,20.7 C8.16468564,20.89 8.42468564,21 8.68468564,21 L15.3146856,21 C15.5846856,21 15.8346856,20.89 16.0246856,20.71 L20.7046856,16.03 C20.8946856,15.84 20.9946856,15.59 20.9946856,15.32 L20.9946856,8.68 C21.0046856,8.42 20.8946856,8.16 20.7146856,7.98 Z M19.0046856,14.9 L14.9046856,19 L9.10468564,19 L5.00468564,14.9 L5.00468564,9.1 L9.10468564,5 L14.9046856,5 L19.0046856,9.1 L19.0046856,14.9 Z M12.0046856,15 C11.4524009,15 11.0046856,15.4477153 11.0046856,16 C11.0046856,16.5522847 11.4524009,17 12.0046856,17 C12.5569704,17 13.0046856,16.5522847 13.0046856,16 C13.0046856,15.4477153 12.5569704,15 12.0046856,15 Z M12.0046856,7 C11.4546856,7 11.0046856,7.45 11.0046856,8 L11.0046856,13 C11.0046856,13.55 11.4546856,14 12.0046856,14 C12.5546856,14 13.0046856,13.55 13.0046856,13 L13.0046856,8 C13.0046856,7.45 12.5546856,7 12.0046856,7 Z" id="path-1"></path>
    </defs>
    <g id="Icons" stroke="none" stroke-width="1" fill="none" fill-rule="evenodd">
        <g id="content-report-gmailerrorred">
            <mask id="mask-2" fill="white">
                <use xlink:href="#path-1"></use>
            </mask>
            <use id="icon_content_report_gmailerrorred_24px" fill="#000000" fill-rule="nonzero" xlink:href="#path-1"></use>
        </g>
    </g>
</svg>