<?xml version="1.0" encoding="UTF-8"?>
<svg width="24px" height="24px" viewBox="0 0 24 24" version="1.1" xmlns="http://www.w3.org/2000/svg" xmlns:xlink="http://www.w3.org/1999/xlink">
    <!-- Generator: sketchtool 51 (57462) - http://www.bohemiancoding.com/sketch -->
    <title>content-waves</title>
    <desc>Created with sketchtool.</desc>
    <defs>
        <path d="M17,16.9900001 C15.65,16.9900001 14.8,17.4100001 14.05,17.7900001 C13.4,18.1200001 12.87,18.3900001 12,18.3900001 C11.1,18.3900001 10.6,18.1400001 9.95,17.7900001 C9.2,17.4100001 8.38,16.9900001 7,16.9900001 C5.62,16.9900001 4.8,17.4100001 4.05,17.7900001 C3.62,18.0100001 3.24,18.2000001 2.78,18.3100001 C2.33,18.4100001 2,18.7700001 2,19.2200001 L2,19.3200001 C2,19.9200001 2.56,20.3500001 3.14,20.2300001 C3.88,20.0800001 4.44,19.8000001 4.95,19.5400001 C5.6,19.2100001 6.12,18.9400001 7,18.9400001 C7.88,18.9400001 8.4,19.1900001 9.05,19.5400001 C9.8,19.9200001 10.62,20.3400001 12,20.3400001 C13.38,20.3400001 14.2,19.9200001 14.95,19.5400001 C15.6,19.2100001 16.13,18.9400001 17,18.9400001 C17.9,18.9400001 18.4,19.1900001 19.05,19.5400001 C19.57,19.8000001 20.13,20.0900001 20.88,20.2400001 C21.46,20.3500001 22,19.9100001 22,19.3300001 L22,19.2400001 C22,18.7800001 21.66,18.4200001 21.21,18.3200001 C20.75,18.2200001 20.38,18.0300001 19.95,17.8000001 C19.2,17.4100001 18.35,16.9900001 17,16.9900001 Z M17,12.5400001 C15.65,12.5400001 14.8,12.9700001 14.05,13.3400001 C13.4,13.6600001 12.87,13.9400001 12,13.9400001 C11.1,13.9400001 10.6,13.6900001 9.95,13.3400001 C9.2,12.9600001 8.38,12.5400001 7,12.5400001 C5.62,12.5400001 4.8,12.9700001 4.05,13.3400001 C3.62,13.5500001 3.24,13.7500001 2.77,13.8600001 C2.33,13.9600001 2,14.3200001 2,14.7700001 L2,14.8700001 C2,15.4600001 2.54,15.9000001 3.12,15.7800001 C3.87,15.6300001 4.43,15.3400001 4.95,15.0900001 C5.6,14.7400001 6.1,14.4900001 7,14.4900001 C7.9,14.4900001 8.4,14.7400001 9.05,15.0900001 C9.8,15.4700001 10.62,15.8900001 12,15.8900001 C13.38,15.8900001 14.2,15.4600001 14.95,15.0900001 C15.6,14.7400001 16.1,14.4900001 17,14.4900001 C17.9,14.4900001 18.4,14.7400001 19.05,15.0900001 C19.57,15.3500001 20.13,15.6400001 20.88,15.7900001 C21.46,15.9000001 22,15.4600001 22,14.8700001 L22,14.7800001 C22,14.3200001 21.66,13.9600001 21.21,13.8600001 C20.75,13.7600001 20.38,13.5700001 19.95,13.3400001 C19.2,12.9600001 18.35,12.5400001 17,12.5400001 Z M19.95,4.46000009 C19.2,4.08000009 18.37,3.66000009 17,3.66000009 C15.63,3.66000009 14.8,4.08000009 14.05,4.46000009 C13.4,4.78000009 12.87,5.06000009 12,5.06000009 C11.1,5.06000009 10.6,4.81000009 9.95,4.46000009 C9.2,4.09000009 8.38,3.66000009 7,3.66000009 C5.62,3.66000009 4.8,4.08000009 4.05,4.46000009 C3.62,4.68000009 3.24,4.87000009 2.78,4.98000009 C2.33,5.08000009 2,5.44000009 2,5.89000009 L2,5.96000009 C2,6.56000009 2.54,7.00000009 3.12,6.88000009 C3.87,6.73000009 4.43,6.44000009 4.95,6.19000009 C5.6,5.86000009 6.12,5.59000009 7,5.59000009 C7.88,5.59000009 8.4,5.84000009 9.05,6.19000009 C9.8,6.57000009 10.62,6.99000009 12,6.99000009 C13.38,6.99000009 14.2,6.56000009 14.95,6.19000009 C15.6,5.87000009 16.13,5.59000009 17,5.59000009 C17.9,5.59000009 18.4,5.84000009 19.05,6.19000009 C19.57,6.45000009 20.13,6.74000009 20.88,6.89000009 C21.46,7.00000009 22,6.56000009 22,5.97000009 L22,5.88000009 C22,5.42000009 21.66,5.06000009 21.21,4.96000009 C20.75,4.86000009 20.38,4.68000009 19.95,4.46000009 Z M17,8.09000009 C15.65,8.09000009 14.8,8.52000009 14.05,8.89000009 C13.4,9.24000009 12.9,9.49000009 12,9.49000009 C11.1,9.49000009 10.6,9.24000009 9.95,8.89000009 C9.2,8.51000009 8.38,8.09000009 7,8.09000009 C5.62,8.09000009 4.8,8.52000009 4.05,8.89000009 C3.62,9.12000009 3.25,9.31000009 2.79,9.41000009 C2.34,9.51000009 2,9.87000009 2,10.3300001 L2,10.4200001 C2,11.0100001 2.54,11.4500001 3.12,11.3300001 C3.87,11.1800001 4.43,10.8900001 4.95,10.6400001 C5.6,10.3200001 6.13,10.0400001 7,10.0400001 C7.87,10.0400001 8.4,10.2900001 9.05,10.6400001 C9.8,11.0200001 10.62,11.4400001 12,11.4400001 C13.38,11.4400001 14.2,11.0100001 14.95,10.6400001 C15.6,10.3200001 16.13,10.0400001 17,10.0400001 C17.9,10.0400001 18.4,10.2900001 19.05,10.6400001 C19.57,10.9000001 20.13,11.1900001 20.88,11.3400001 C21.46,11.4500001 22,11.0100001 22,10.4300001 L22,10.3400001 C22,9.88000009 21.66,9.52000009 21.21,9.42000009 C20.75,9.32000009 20.38,9.13000009 19.95,8.90000009 C19.2,8.51000009 18.35,8.09000009 17,8.09000009 Z" id="path-1"></path>
    </defs>
    <g id="Icons" stroke="none" stroke-width="1" fill="none" fill-rule="evenodd">
        <g id="content-waves">
            <mask id="mask-2" fill="white">
                <use xlink:href="#path-1"></use>
            </mask>
            <use id="icon_content_waves_24px" fill="#000000" fill-rule="nonzero" xlink:href="#path-1"></use>
        </g>
    </g>
</svg>