<?xml version="1.0" encoding="UTF-8"?>
<svg width="24px" height="24px" viewBox="0 0 24 24" version="1.1" xmlns="http://www.w3.org/2000/svg" xmlns:xlink="http://www.w3.org/1999/xlink">
    <!-- Generator: sketchtool 51 (57462) - http://www.bohemiancoding.com/sketch -->
    <title>device-data-usage</title>
    <desc>Created with sketchtool.</desc>
    <defs>
        <path d="M13.0011775,3.69058182 L13.0011775,3.71058182 C13.0011775,4.38058182 13.4511775,4.94058182 14.0811775,5.14058182 C16.9311775,6.03058182 19.0011775,8.68058182 19.0011775,11.8205818 C19.0011775,12.3405818 18.9411775,12.8305818 18.8311775,13.3105818 C18.6911775,13.9505818 18.9511775,14.6105818 19.5211775,14.9505818 L19.5311775,14.9605818 C20.3911775,15.4605818 21.5111775,15.0105818 21.7411775,14.0505818 C21.9111775,13.3305818 22.0011775,12.5805818 22.0011775,11.8205818 C22.0011775,7.32058182 19.0211775,3.50058182 14.9211775,2.25058182 C13.9711775,1.96058182 13.0011775,2.69058182 13.0011775,3.69058182 Z M10.9411775,18.7405818 C7.95117748,18.3105818 5.52117748,15.8805818 5.08117748,12.9005818 C4.54117748,9.30058182 6.74117748,6.13058182 9.91117748,5.14058182 C10.5511775,4.95058182 11.0011775,4.38058182 11.0011775,3.71058182 L11.0011775,3.69058182 C11.0011775,2.69058182 10.0311775,1.96058182 9.07117748,2.25058182 C4.56117748,3.63058182 1.41117748,8.11058182 2.09117748,13.2105818 C2.68117748,17.5905818 6.22117748,21.1305818 10.6011775,21.7205818 C13.7411775,22.1405818 16.6411775,21.1105818 18.7311775,19.1905818 C19.4711775,18.5105818 19.3411775,17.3005818 18.4711775,16.8005818 C17.8911775,16.4605818 17.1711775,16.5705818 16.6711775,17.0205818 C15.2011775,18.3605818 13.1611775,19.0705818 10.9411775,18.7405818 Z" id="path-1"></path>
    </defs>
    <g id="Icons" stroke="none" stroke-width="1" fill="none" fill-rule="evenodd">
        <g id="device-data-usage">
            <mask id="mask-2" fill="white">
                <use xlink:href="#path-1"></use>
            </mask>
            <use id="icon_device_data_usage_24px" fill="#000000" fill-rule="nonzero" xlink:href="#path-1"></use>
        </g>
    </g>
</svg>