<?xml version="1.0" encoding="UTF-8"?>
<svg width="24px" height="24px" viewBox="0 0 24 24" version="1.1" xmlns="http://www.w3.org/2000/svg" xmlns:xlink="http://www.w3.org/1999/xlink">
    <!-- Generator: sketchtool 51 (57462) - http://www.bohemiancoding.com/sketch -->
    <title>editor-attach-money</title>
    <desc>Created with sketchtool.</desc>
    <defs>
        <path d="M12.3,10.9 C10.03,10.31 9.3,9.7 9.3,8.75 C9.3,7.66 10.31,6.9 12,6.9 C13.42,6.9 14.13,7.44 14.39,8.3 C14.51,8.7 14.84,9 15.26,9 L15.56,9 C16.22,9 16.69,8.35 16.46,7.73 C16.04,6.55 15.06,5.57 13.5,5.19 L13.5,4.5 C13.5,3.67 12.83,3 12,3 C11.17,3 10.5,3.67 10.5,4.5 L10.5,5.16 C8.56,5.58 7,6.84 7,8.77 C7,11.08 8.91,12.23 11.7,12.9 C14.2,13.5 14.7,14.38 14.7,15.31 C14.7,16 14.21,17.1 12,17.1 C10.35,17.1 9.5,16.51 9.17,15.67 C9.02,15.28 8.68,15 8.27,15 L7.99,15 C7.32,15 6.85,15.68 7.1,16.3 C7.67,17.69 9,18.51 10.5,18.83 L10.5,19.5 C10.5,20.33 11.17,21 12,21 C12.83,21 13.5,20.33 13.5,19.5 L13.5,18.85 C15.45,18.48 17,17.35 17,15.3 C17,12.46 14.57,11.49 12.3,10.9 Z" id="path-1"></path>
    </defs>
    <g id="Icons" stroke="none" stroke-width="1" fill="none" fill-rule="evenodd">
        <g id="editor-attach-money">
            <mask id="mask-2" fill="white">
                <use xlink:href="#path-1"></use>
            </mask>
            <use id="icon_editor_attach_money_24px" fill="#000000" fill-rule="nonzero" xlink:href="#path-1"></use>
        </g>
    </g>
</svg>