<?xml version="1.0" encoding="UTF-8"?>
<svg width="24px" height="24px" viewBox="0 0 24 24" version="1.1" xmlns="http://www.w3.org/2000/svg" xmlns:xlink="http://www.w3.org/1999/xlink">
    <!-- Generator: sketchtool 51 (57462) - http://www.bohemiancoding.com/sketch -->
    <title>file-attachment</title>
    <desc>Created with sketchtool.</desc>
    <defs>
        <path d="M17.2539288,16 L6.6739288,16 C4.5839288,16 2.7239288,14.47 2.5239288,12.39 C2.2939288,10.01 4.1639288,8 6.5039288,8 L18.8639288,8 C20.1739288,8 21.3639288,8.94 21.4939288,10.24 C21.6439288,11.74 20.4739288,13 19.0039288,13 L8.5039288,13 C7.9539288,13 7.5039288,12.55 7.5039288,12 C7.5039288,11.45 7.9539288,11 8.5039288,11 L17.2539288,11 C17.6639288,11 18.0039288,10.66 18.0039288,10.25 C18.0039288,9.84 17.6639288,9.5 17.2539288,9.5 L8.6439288,9.5 C7.3339288,9.5 6.1439288,10.44 6.0139288,11.74 C5.8639288,13.24 7.0339288,14.5 8.5039288,14.5 L18.8339288,14.5 C20.9239288,14.5 22.7839288,12.97 22.9839288,10.89 C23.2139288,8.5 21.3439288,6.5 19.0039288,6.5 L6.7339288,6.5 C3.8639288,6.5 1.2939288,8.6 1.0239288,11.46 C0.723928803,14.75 3.2839288,17.5 6.5039288,17.5 L17.2539288,17.5 C17.6639288,17.5 18.0039288,17.16 18.0039288,16.75 C18.0039288,16.34 17.6639288,16 17.2539288,16 Z" id="path-1"></path>
    </defs>
    <g id="Icons" stroke="none" stroke-width="1" fill="none" fill-rule="evenodd">
        <g id="file-attachment">
            <mask id="mask-2" fill="white">
                <use xlink:href="#path-1"></use>
            </mask>
            <use id="icon_file_attachment_24px" fill="#000000" fill-rule="nonzero" xlink:href="#path-1"></use>
        </g>
    </g>
</svg>