<?xml version="1.0" encoding="UTF-8"?>
<svg width="24px" height="24px" viewBox="0 0 24 24" version="1.1" xmlns="http://www.w3.org/2000/svg" xmlns:xlink="http://www.w3.org/1999/xlink">
    <!-- Generator: sketchtool 51 (57462) - http://www.bohemiancoding.com/sketch -->
    <title>image-camera</title>
    <desc>Created with sketchtool.</desc>
    <defs>
        <path d="M20,5 L16.83,5 L15,3 L9,3 L7.17,5 L4,5 C2.9,5 2,5.9 2,7 L2,19 C2,20.1 2.9,21 4,21 L20,21 C21.1,21 22,20.1 22,19 L22,7 C22,5.9 21.1,5 20,5 Z M20,19 L4,19 L4,7 L8.05,7 L9.88,5 L14.12,5 L15.95,7 L20,7 L20,19 Z M12,8 C9.24,8 7,10.24 7,13 C7,15.76 9.24,18 12,18 C14.76,18 17,15.76 17,13 C17,10.24 14.76,8 12,8 Z M12,16 C10.35,16 9,14.65 9,13 C9,11.35 10.35,10 12,10 C13.65,10 15,11.35 15,13 C15,14.65 13.65,16 12,16 Z" id="path-1"></path>
    </defs>
    <g id="Icons" stroke="none" stroke-width="1" fill="none" fill-rule="evenodd">
        <g id="image-camera">
            <mask id="mask-2" fill="white">
                <use xlink:href="#path-1"></use>
            </mask>
            <use id="icon_image_camera_24px" fill="#000000" fill-rule="nonzero" xlink:href="#path-1"></use>
        </g>
    </g>
</svg>