<?xml version="1.0" encoding="UTF-8"?>
<svg width="24px" height="24px" viewBox="0 0 24 24" version="1.1" xmlns="http://www.w3.org/2000/svg" xmlns:xlink="http://www.w3.org/1999/xlink">
    <!-- Generator: sketchtool 51 (57462) - http://www.bohemiancoding.com/sketch -->
    <title>image-add-a-photo</title>
    <desc>Created with sketchtool.</desc>
    <defs>
        <path d="M4.97826087,9.10869569 L4.97826087,7.45652178 L3.32608696,7.45652178 C2.87173913,7.45652178 2.5,7.08478265 2.5,6.63043482 C2.5,6.176087 2.87173913,5.80434787 3.32608696,5.80434787 L4.97826087,5.80434787 L4.97826087,4.15217395 C4.97826087,3.69782613 5.35,3.326087 5.80434783,3.326087 C6.25869565,3.326087 6.63043478,3.69782613 6.63043478,4.15217395 L6.63043478,5.80434787 L8.2826087,5.80434787 C8.73695652,5.80434787 9.10869565,6.176087 9.10869565,6.63043482 C9.10869565,7.08478265 8.73695652,7.45652178 8.2826087,7.45652178 L6.63043478,7.45652178 L6.63043478,9.10869569 C6.63043478,9.56304352 6.25869565,9.93478265 5.80434783,9.93478265 C5.35,9.93478265 4.97826087,9.56304352 4.97826087,9.10869569 Z M9.09412859,13.7713059 C9.09412859,11.4913059 10.9445634,9.64087113 13.2245634,9.64087113 C15.5045634,9.64087113 17.3549982,11.4913059 17.3549982,13.7713059 C17.3549982,16.0513059 15.5045634,17.9017407 13.2245634,17.9017407 C10.9445634,17.9017407 9.09412859,16.0513059 9.09412859,13.7713059 Z M13.2245634,11.293045 C12.339166,11.293045 11.5210251,11.7653989 11.0783265,12.5321755 C10.6356278,13.2989521 10.6356278,14.2436598 11.0783265,15.0104364 C11.5210251,15.777213 12.339166,16.2495668 13.2245634,16.2495668 C14.1099607,16.2495668 14.9281016,15.777213 15.3708003,15.0104364 C15.813499,14.2436598 15.813499,13.2989521 15.3708003,12.5321755 C14.9281016,11.7653989 14.1099607,11.293045 13.2245634,11.293045 Z M16.0123466,8.57416026 L14.985861,7.45652178 L11.5941328,7.45652178 C11.1378976,7.45652178 10.7680459,7.08667005 10.7680459,6.63043482 C10.7680459,6.1741996 11.1378976,5.80434787 11.5941328,5.80434787 L14.9904348,5.80434787 C15.4530435,5.80434787 15.8991304,6.00260874 16.2047826,6.34130439 L17.2291304,7.45652178 L19.8478261,7.45652178 C20.7565217,7.45652178 21.5,8.20000004 21.5,9.10869569 L21.5,19.0217392 C21.5,19.9304348 20.7565217,20.6739131 19.8478261,20.6739131 L6.63043478,20.6739131 C5.72173913,20.6739131 4.97826087,19.9304348 4.97826087,19.0217392 L4.97826087,12.4590185 C4.97826087,12.0027832 5.3481126,11.6329315 5.80434783,11.6329315 C6.26058305,11.6329315 6.63043478,12.0027832 6.63043478,12.4590185 L6.63043478,19.0217392 L19.8478261,19.0217392 L19.8478261,9.10869569 L17.2291304,9.10869569 C16.7665937,9.10869569 16.3252367,8.91480676 16.0123466,8.57416026 Z" id="path-1"></path>
    </defs>
    <g id="Icons" stroke="none" stroke-width="1" fill="none" fill-rule="evenodd">
        <g id="image-add-a-photo">
            <mask id="mask-2" fill="white">
                <use xlink:href="#path-1"></use>
            </mask>
            <use id="icon_image_add_a_photo_24px" fill="#000000" fill-rule="nonzero" xlink:href="#path-1"></use>
        </g>
    </g>
</svg>