<?xml version="1.0" encoding="UTF-8"?>
<svg width="24px" height="24px" viewBox="0 0 24 24" version="1.1" xmlns="http://www.w3.org/2000/svg" xmlns:xlink="http://www.w3.org/1999/xlink">
    <!-- Generator: sketchtool 51 (57462) - http://www.bohemiancoding.com/sketch -->
    <title>maps-car</title>
    <desc>Created with sketchtool.</desc>
    <defs>
        <path d="M18.92,5.01 C18.72,4.42 18.16,4 17.5,4 L6.5,4 C5.84,4 5.29,4.42 5.08,5.01 L3,11 L3,18.5 C3,19.3284271 3.67157288,20 4.5,20 L4.5,20 C5.32842712,20 6,19.3284271 6,18.5 L6,18 L18,18 L18,18.5 C18,19.3284271 18.6715729,20 19.5,20 L19.5,20 C20.3284271,20 21,19.3284271 21,18.5 L21,11 L18.92,5.01 Z M7.56131438,6 L16.4286856,6 C16.8545244,6 17.2336501,6.26967754 17.3733462,6.67195066 L18.22,9.11 L5.77,9.11 L6.61665379,6.67195066 C6.75634992,6.26967754 7.1354756,6 7.56131438,6 Z M18.5,16 L5.5,16 C5.22385763,16 5,15.7761424 5,15.5 L5,11.5 C5,11.2238576 5.22385763,11 5.5,11 L18.5,11 C18.7761424,11 19,11.2238576 19,11.5 L19,15.5 C19,15.7761424 18.7761424,16 18.5,16 Z M16.5,15 C17.3284271,15 18,14.3284271 18,13.5 C18,12.6715729 17.3284271,12 16.5,12 C15.6715729,12 15,12.6715729 15,13.5 C15,14.3284271 15.6715729,15 16.5,15 Z M7.5,15 C8.32842712,15 9,14.3284271 9,13.5 C9,12.6715729 8.32842712,12 7.5,12 C6.67157288,12 6,12.6715729 6,13.5 C6,14.3284271 6.67157288,15 7.5,15 Z" id="path-1"></path>
    </defs>
    <g id="Icons" stroke="none" stroke-width="1" fill="none" fill-rule="evenodd">
        <g id="maps-car">
            <mask id="mask-2" fill="white">
                <use xlink:href="#path-1"></use>
            </mask>
            <use id="icon_maps_car_24px" fill="#000000" fill-rule="nonzero" xlink:href="#path-1"></use>
        </g>
    </g>
</svg>