<?xml version="1.0" encoding="UTF-8"?>
<svg width="24px" height="24px" viewBox="0 0 24 24" version="1.1" xmlns="http://www.w3.org/2000/svg" xmlns:xlink="http://www.w3.org/1999/xlink">
    <!-- Generator: sketchtool 51 (57462) - http://www.bohemiancoding.com/sketch -->
    <title>maps-layers</title>
    <desc>Created with sketchtool.</desc>
    <defs>
        <path d="M12.9825,18.54 C12.6225,18.82 12.1125,18.82 11.7525,18.54 L5.6025,13.76 C5.24402418,13.4800171 4.74097582,13.4800171 4.3825,13.76 C3.8725,14.16 3.8725,14.93 4.3825,15.33 L11.1425,20.59 C11.8625,21.15 12.8725,21.15 13.6025,20.59 L20.3625,15.33 C20.8725,14.93 20.8725,14.16 20.3625,13.76 L20.3525,13.75 C19.9940242,13.4700171 19.4909758,13.4700171 19.1325,13.75 L12.9825,18.54 Z M13.6125,15.52 C12.8925,16.09 11.8725,16.09 11.1525,15.53 L4.3925,10.27 C3.8825,9.87 3.8825,9.09 4.3925,8.69 L11.1525,3.42 C11.8825,2.86 12.8925,2.86 13.6125,3.42 L20.3725,8.68 C20.8825,9.08 20.8825,9.86 20.3725,10.26 L13.6125,15.52 Z M13.1630006,13.3106483 L17.4525815,9.97289751 C17.7762037,9.71907616 17.7762037,9.22412453 17.4525815,8.97030318 L13.1630006,5.63255243 C12.7061222,5.27720254 12.0652233,5.27720254 11.6019994,5.63255243 L7.31241854,8.97664871 C6.98879632,9.23047006 6.98879632,9.72542169 7.31241854,9.97924304 L11.6019994,13.3169938 C12.0588778,13.6723437 12.7061222,13.6723437 13.1630006,13.3106483 Z" id="path-1"></path>
    </defs>
    <g id="Icons" stroke="none" stroke-width="1" fill="none" fill-rule="evenodd">
        <g id="maps-layers">
            <mask id="mask-2" fill="white">
                <use xlink:href="#path-1"></use>
            </mask>
            <use id="icon_maps_layers_24px" fill="#000000" fill-rule="nonzero" xlink:href="#path-1"></use>
        </g>
    </g>
</svg>