<?xml version="1.0" encoding="UTF-8"?>
<svg width="24px" height="24px" viewBox="0 0 24 24" version="1.1" xmlns="http://www.w3.org/2000/svg" xmlns:xlink="http://www.w3.org/1999/xlink">
    <!-- Generator: sketchtool 51 (57462) - http://www.bohemiancoding.com/sketch -->
    <title>maps-directions-transit</title>
    <desc>Created with sketchtool.</desc>
    <defs>
        <path d="M12,3 C8,3 4,3.5 4,7 L4,16.5 C4,18.43 5.57,20 7.5,20 L6,21.5 L6,22 L18,22 L18,21.5 L16.5,20 C18.43,20 20,18.43 20,16.5 L20,7 C20,3.5 16.42,3 12,3 Z M17.66,6 L6.43,6 C7.04,5.48 8.49,5 12,5 C15.71,5 17.12,5.46 17.66,6 Z M11,8 L11,11 L6,11 L6,8 L11,8 Z M13,8 L18,8 L18,11 L13,11 L13,8 Z M16.5,18 L7.5,18 C6.67,18 6,17.33 6,16.5 L6,13 L18,13 L18,16.5 C18,17.33 17.33,18 16.5,18 Z M8.5,17 C9.32842712,17 10,16.3284271 10,15.5 C10,14.6715729 9.32842712,14 8.5,14 C7.67157288,14 7,14.6715729 7,15.5 C7,16.3284271 7.67157288,17 8.5,17 Z M15.5,17 C16.3284271,17 17,16.3284271 17,15.5 C17,14.6715729 16.3284271,14 15.5,14 C14.6715729,14 14,14.6715729 14,15.5 C14,16.3284271 14.6715729,17 15.5,17 Z" id="path-1"></path>
    </defs>
    <g id="Icons" stroke="none" stroke-width="1" fill="none" fill-rule="evenodd">
        <g id="maps-directions-transit">
            <mask id="mask-2" fill="white">
                <use xlink:href="#path-1"></use>
            </mask>
            <use id="icon_maps_directions_transit_24px" fill="#000000" fill-rule="nonzero" xlink:href="#path-1"></use>
        </g>
    </g>
</svg>