<?xml version="1.0" encoding="UTF-8"?>
<svg width="24px" height="24px" viewBox="0 0 24 24" version="1.1" xmlns="http://www.w3.org/2000/svg" xmlns:xlink="http://www.w3.org/1999/xlink">
    <!-- Generator: sketchtool 51 (57462) - http://www.bohemiancoding.com/sketch -->
    <title>maps-hotel</title>
    <desc>Created with sketchtool.</desc>
    <defs>
        <path d="M7,13.5 C8.66,13.5 10,12.16 10,10.5 C10,8.84 8.66,7.5 7,7.5 C5.34,7.5 4,8.84 4,10.5 C4,12.16 5.34,13.5 7,13.5 Z M7,9.5 C7.55,9.5 8,9.95 8,10.5 C8,11.05 7.55,11.5 7,11.5 C6.45,11.5 6,11.05 6,10.5 C6,9.95 6.45,9.5 7,9.5 Z M19,6.5 L13,6.5 C11.8954305,6.5 11,7.3954305 11,8.5 L11,14.5 L3,14.5 L3,5.5 C3,4.94771525 2.55228475,4.5 2,4.5 L2,4.5 C1.44771525,4.5 1,4.94771525 1,5.5 L1,18.5 C1,19.0522847 1.44771525,19.5 2,19.5 L2,19.5 C2.55228475,19.5 3,19.0522847 3,18.5 L3,16.5 L21,16.5 L21,18.5 C21,19.0522847 21.4477153,19.5 22,19.5 L22,19.5 C22.5522847,19.5 23,19.0522847 23,18.5 L23,10.5 C23,8.29 21.21,6.5 19,6.5 Z M20.5,14.5692845 L13.6353745,14.5692845 C13.3592321,14.5692845 13.1353745,14.3454269 13.1353745,14.0692845 L13.1353745,9 C13.1353745,8.72385763 13.3592321,8.5 13.6353745,8.5 L19.0338436,8.5 C20.1152296,8.5 21,9.41039268 21,10.5230948 L21,14.0692845 C21,14.3454269 20.7761424,14.5692845 20.5,14.5692845 Z" id="path-1"></path>
    </defs>
    <g id="Icons" stroke="none" stroke-width="1" fill="none" fill-rule="evenodd">
        <g id="maps-hotel">
            <mask id="mask-2" fill="white">
                <use xlink:href="#path-1"></use>
            </mask>
            <use id="icon_maps_hotel_24px" fill="#000000" fill-rule="nonzero" xlink:href="#path-1"></use>
        </g>
    </g>
</svg>