<?xml version="1.0" encoding="UTF-8"?>
<svg width="24px" height="24px" viewBox="0 0 24 24" version="1.1" xmlns="http://www.w3.org/2000/svg" xmlns:xlink="http://www.w3.org/1999/xlink">
    <!-- Generator: sketchtool 51 (57462) - http://www.bohemiancoding.com/sketch -->
    <title>maps-local-pharmacy</title>
    <desc>Created with sketchtool.</desc>
    <defs>
        <path d="M18.7937265,5.64706551 L18.2637265,5.64706551 L18.9737265,3.67706551 C19.2137265,3.02706551 18.8737265,2.30706551 18.2237265,2.07706551 C17.5737265,1.83706551 16.8537265,2.17706551 16.6137265,2.82706551 L15.5937265,5.64706551 L5.00372652,5.64706551 C3.63372652,5.64706551 2.67372652,6.98706551 3.10372652,8.27706551 L4.90372652,13.6470655 L3.11372652,19.0170655 C2.67372652,20.3070655 3.64372652,21.6470655 5.00372652,21.6470655 L18.7837265,21.6470655 C20.1437265,21.6470655 21.1137265,20.3070655 20.6837265,19.0170655 L18.9037265,13.6470655 L20.6837265,8.27706551 C21.1137265,6.98706551 20.1537265,5.64706551 18.7937265,5.64706551 Z M16.9937487,14.2770655 L18.5643774,18.9889516 C18.6517013,19.2509233 18.5101213,19.5340833 18.2481496,19.6214072 C18.1971664,19.6384016 18.1437768,19.6470655 18.0900357,19.6470655 L5.69746161,19.6470655 C5.42131924,19.6470655 5.19746161,19.4232079 5.19746161,19.1470655 C5.19746161,19.0933245 5.20612555,19.0399349 5.22311997,18.9889516 L6.79374867,14.2770655 L7.00374867,13.6470655 L6.79374867,13.0170655 L5.22311997,8.30517939 C5.13579608,8.04320773 5.27737607,7.76004774 5.53934773,7.67272386 C5.59033097,7.65572945 5.64372057,7.64706551 5.69746161,7.64706551 L18.0900357,7.64706551 C18.3661781,7.64706551 18.5900357,7.87092313 18.5900357,8.14706551 C18.5900357,8.20080655 18.5813718,8.25419615 18.5643774,8.30517939 L16.9937487,13.0170655 L16.7837487,13.6470655 L16.9937487,14.2770655 Z M14.9037265,14.6470655 L12.9037265,14.6470655 L12.9037265,16.6470655 C12.9037265,17.1970655 12.4537265,17.6470655 11.9037265,17.6470655 C11.3537265,17.6470655 10.9037265,17.1970655 10.9037265,16.6470655 L10.9037265,14.6470655 L8.90372652,14.6470655 C8.35372652,14.6470655 7.90372652,14.1970655 7.90372652,13.6470655 C7.90372652,13.0970655 8.35372652,12.6470655 8.90372652,12.6470655 L10.9037265,12.6470655 L10.9037265,10.6470655 C10.9037265,10.0970655 11.3537265,9.64706551 11.9037265,9.64706551 C12.4537265,9.64706551 12.9037265,10.0970655 12.9037265,10.6470655 L12.9037265,12.6470655 L14.9037265,12.6470655 C15.4537265,12.6470655 15.9037265,13.0970655 15.9037265,13.6470655 C15.9037265,14.1970655 15.4537265,14.6470655 14.9037265,14.6470655 Z" id="path-1"></path>
    </defs>
    <g id="Icons" stroke="none" stroke-width="1" fill="none" fill-rule="evenodd">
        <g id="maps-local-pharmacy">
            <mask id="mask-2" fill="white">
                <use xlink:href="#path-1"></use>
            </mask>
            <use id="icon_maps_local_pharmacy_24px" fill="#000000" fill-rule="nonzero" xlink:href="#path-1"></use>
        </g>
    </g>
</svg>