<?xml version="1.0" encoding="UTF-8"?>
<svg width="24px" height="24px" viewBox="0 0 24 24" version="1.1" xmlns="http://www.w3.org/2000/svg" xmlns:xlink="http://www.w3.org/1999/xlink">
    <!-- Generator: sketchtool 51 (57462) - http://www.bohemiancoding.com/sketch -->
    <title>maps-my-location</title>
    <desc>Created with sketchtool.</desc>
    <defs>
        <path d="M8.44230769,8.49038462 C9.4359024,7.4967899 10.621788,7 12,7 C13.378212,7 14.5560849,7.48877716 15.5336538,8.46634615 C16.5112228,9.44391514 17,10.621788 17,12 C17,13.378212 16.5112228,14.5560849 15.5336538,15.5336538 C14.5560849,16.5112228 13.378212,17 12,17 C10.621788,17 9.44391514,16.5112228 8.46634615,15.5336538 C7.48877716,14.5560849 7,13.378212 7,12 C7,10.621788 7.48076442,9.45192788 8.44230769,8.49038462 Z M4.93269231,4.93269231 C6.88783029,2.97755433 9.24357596,2 12,2 C14.756424,2 17.1121697,2.97755433 19.0673077,4.93269231 C21.0224457,6.88783029 22,9.24357596 22,12 C22,14.756424 21.0224457,17.1121697 19.0673077,19.0673077 C17.1121697,21.0224457 14.756424,22 12,22 C9.24357596,22 6.88783029,21.0224457 4.93269231,19.0673077 C2.97755433,17.1121697 2,14.756424 2,12 C2,9.24357596 2.97755433,6.88783029 4.93269231,4.93269231 Z M6.32692308,17.6730769 C7.89744375,19.2115462 9.78845048,19.9807692 12,19.9807692 C14.2115495,19.9807692 16.0945435,19.2035334 17.6490385,17.6490385 C19.2035334,16.0945435 19.9807692,14.2115495 19.9807692,12 C19.9807692,9.78845048 19.2035334,7.90545649 17.6490385,6.35096154 C16.0945435,4.79646659 14.2115495,4.01923077 12,4.01923077 C9.78845048,4.01923077 7.90545649,4.79646659 6.35096154,6.35096154 C4.79646659,7.90545649 4.01923077,9.78845048 4.01923077,12 C4.01923077,14.2115495 4.78845385,16.1025562 6.32692308,17.6730769 Z" id="path-1"></path>
    </defs>
    <g id="Icons" stroke="none" stroke-width="1" fill="none" fill-rule="evenodd">
        <g id="maps-my-location">
            <mask id="mask-2" fill="white">
                <use xlink:href="#path-1"></use>
            </mask>
            <use id="icon_maps_my_location_24px" fill="#000000" xlink:href="#path-1"></use>
        </g>
    </g>
</svg>