<?xml version="1.0" encoding="UTF-8"?>
<svg width="24px" height="24px" viewBox="0 0 24 24" version="1.1" xmlns="http://www.w3.org/2000/svg" xmlns:xlink="http://www.w3.org/1999/xlink">
    <!-- Generator: sketchtool 51 (57462) - http://www.bohemiancoding.com/sketch -->
    <title>maps-delivery-shipping</title>
    <desc>Created with sketchtool.</desc>
    <defs>
        <path d="M19.5,8 C19.8147573,8 20.1111456,8.14819416 20.3,8.4 L22.6,11.4666667 C22.8596443,11.812859 23,12.2339262 23,12.6666667 L23,16 C23,16.5522847 22.5522847,17 22,17 L21,17 C21,18.66 19.66,20 18,20 C16.34,20 15,18.66 15,17 L9,17 C9,18.66 7.66,20 6,20 C4.34,20 3,18.66 3,17 C1.8954305,17 1,16.1045695 1,15 L1,6 C1,4.9 1.9,4 3,4 L15,4 C16.1045695,4 17,4.8954305 17,6 L17,8 L19.5,8 Z M19.5,9.5 L17,9.5 L17,12 L21.46,12 L19.5,9.5 Z M6,18 C6.55,18 7,17.55 7,17 C7,16.45 6.55,16 6,16 C5.45,16 5,16.45 5,17 C5,17.55 5.45,18 6,18 Z M8.22,15 L14.9,15 C14.9552285,15 15,14.9552285 15,14.9 L15,6.1 C15,6.04477153 14.9552285,6 14.9,6 L3.1,6 C3.04477153,6 3,6.04477153 3,6.1 L3,14.9 C3,14.9552285 3.04477153,15 3.1,15 L3.78,15 C4.33,14.39 5.11,14 6,14 C6.89,14 7.67,14.39 8.22,15 Z M18,18 C18.55,18 19,17.55 19,17 C19,16.45 18.55,16 18,16 C17.45,16 17,16.45 17,17 C17,17.55 17.45,18 18,18 Z" id="path-1"></path>
    </defs>
    <g id="Icons" stroke="none" stroke-width="1" fill="none" fill-rule="evenodd">
        <g id="maps-delivery-shipping">
            <mask id="mask-2" fill="white">
                <use xlink:href="#path-1"></use>
            </mask>
            <use id="icon_maps_local_shipping_24px" fill="#000000" fill-rule="nonzero" xlink:href="#path-1"></use>
        </g>
    </g>
</svg>