<?xml version="1.0" encoding="UTF-8"?>
<svg width="24px" height="24px" viewBox="0 0 24 24" version="1.1" xmlns="http://www.w3.org/2000/svg" xmlns:xlink="http://www.w3.org/1999/xlink">
    <!-- Generator: sketchtool 51 (57462) - http://www.bohemiancoding.com/sketch -->
    <title>maps-local-bank</title>
    <desc>Created with sketchtool.</desc>
    <defs>
        <path d="M20,4 L4,4 C2.89,4 2.01,4.89 2.01,6 L2,18 C2,19.11 2.89,20 4,20 L20,20 C21.11,20 22,19.11 22,18 L22,6 C22,4.89 21.11,4 20,4 Z M20,17 C20,17.55 19.55,18 19,18 L5,18 C4.45,18 4,17.55 4,17 L4,7 C4,6.45 4.45,6 5,6 L19,6 C19.55,6 20,6.45 20,7 L20,17 Z M12.1963402,13.8879241 C12.1963402,14.3133538 12.4566757,14.5101928 12.9619955,14.5101928 C13.9649744,14.5101928 14.6118685,13.6911892 14.6118685,12.4540577 C14.6118685,12.1111078 14.468765,11.9512778 14.1927309,11.9512778 C13.8395732,11.9777168 13.5095823,11.803809 13.3358373,11.5040138 C13.1009745,11.0987603 13.2391034,10.5798436 13.6443569,10.3449807 C13.6951708,10.3155318 13.7489061,10.2914408 13.8046335,10.2731166 C13.958479,10.2224832 14.10789,10.1966447 14.2524753,10.1966447 C15.5151117,10.1966447 16.4023483,11.060736 16.4023483,12.4421088 C16.4023483,14.6170773 15.1040724,16.2050815 12.9619955,16.2050815 C11.3825032,16.2050815 10.3580649,15.3605624 10.3580649,13.8879241 L10.3580649,12.03492 L10.0942627,12.03492 C9.6592281,12.03492 9.30656284,11.6822548 9.30656284,11.2472201 C9.30656284,10.8121855 9.6592281,10.4595202 10.0942627,10.4595202 L10.3580649,10.4595202 L10.3580649,10.1240248 C10.3580649,9.61816296 10.2673815,9.51370495 9.85528501,9.51370495 C9.36601196,9.51370495 8.98659821,9.1342912 8.98659821,8.66626062 C8.98659821,8.19828998 9.3585297,7.81505233 9.8262906,7.80104285 L9.92666237,7.79803671 C9.97684826,7.79653364 9.97684826,7.79653364 10.0345183,7.79491851 C11.4539989,7.79491851 12.1963402,8.62730978 12.1963402,10.0881781 L12.1963402,10.4702821 C12.5692644,10.5324648 12.8535289,10.8566457 12.8535289,11.2472201 C12.8535289,11.6377946 12.5692644,11.9619755 12.1963402,12.0241581 L12.1963402,13.8879241 Z" id="path-1"></path>
    </defs>
    <g id="Icons" stroke="none" stroke-width="1" fill="none" fill-rule="evenodd">
        <g id="maps-local-bank">
            <mask id="mask-2" fill="white">
                <use xlink:href="#path-1"></use>
            </mask>
            <use id="icon_maps_local_atm_24px" fill="#000000" fill-rule="nonzero" xlink:href="#path-1"></use>
        </g>
    </g>
</svg>