<?xml version="1.0" encoding="UTF-8"?>
<svg width="24px" height="24px" viewBox="0 0 24 24" version="1.1" xmlns="http://www.w3.org/2000/svg" xmlns:xlink="http://www.w3.org/1999/xlink">
    <!-- Generator: sketchtool 51 (57462) - http://www.bohemiancoding.com/sketch -->
    <title>maps-local-gas-station</title>
    <desc>Created with sketchtool.</desc>
    <defs>
        <path d="M19.52,7.22851108 L19.53,7.21851108 L16.34,4.02851108 C16.05,3.73851108 15.57,3.73851108 15.28,4.02851108 C14.99,4.31851108 14.99,4.79851108 15.28,5.08851108 L16.86,6.66851108 C15.81,7.06851108 15.1,8.13851108 15.28,9.37851108 C15.44,10.4785111 16.38,11.3685111 17.48,11.4885111 C17.95,11.5385111 18.36,11.4585111 18.75,11.2885111 L18.75,18.4985111 C18.75,19.0485111 18.3,19.4985111 17.75,19.4985111 C17.2,19.4985111 16.75,19.0485111 16.75,18.4985111 L16.75,13.9985111 C16.75,12.8985111 15.85,11.9985111 14.75,11.9985111 L13.75,11.9985111 L13.75,4.99851108 C13.75,3.89851108 12.85,2.99851108 11.75,2.99851108 L5.75,2.99851108 C4.65,2.99851108 3.75,3.89851108 3.75,4.99851108 L3.75,19.9985111 C3.75,20.5485111 4.2,20.9985111 4.75,20.9985111 L12.75,20.9985111 C13.3,20.9985111 13.75,20.5485111 13.75,19.9985111 L13.75,13.4985111 L15.25,13.4985111 L15.25,18.3585111 C15.25,19.6685111 16.19,20.8585111 17.49,20.9885111 C18.99,21.1385111 20.25,19.9685111 20.25,18.4985111 L20.25,8.99851108 C20.25,8.30851108 19.97,7.67851108 19.52,7.22851108 Z M11.75,9.99851108 L5.75,9.99851108 L5.75,5.99851108 C5.75,5.44851108 6.2,4.99851108 6.75,4.99851108 L10.75,4.99851108 C11.3,4.99851108 11.75,5.44851108 11.75,5.99851108 L11.75,9.99851108 Z M5.75,11.9955334 L11.75,11.9955334 L11.75,17.5979155 C11.75,18.3682431 11.3,18.9985111 10.75,18.9985111 L6.75,18.9985111 C6.2,18.9985111 5.75,18.3682431 5.75,17.5979155 L5.75,11.9955334 Z M17.75,9.99851108 C17.2,9.99851108 16.75,9.54851108 16.75,8.99851108 C16.75,8.44851108 17.2,7.99851108 17.75,7.99851108 C18.3,7.99851108 18.75,8.44851108 18.75,8.99851108 C18.75,9.54851108 18.3,9.99851108 17.75,9.99851108 Z" id="path-1"></path>
    </defs>
    <g id="Icons" stroke="none" stroke-width="1" fill="none" fill-rule="evenodd">
        <g id="maps-local-gas-station">
            <mask id="mask-2" fill="white">
                <use xlink:href="#path-1"></use>
            </mask>
            <use id="icon_maps_local_gas_station_24px" fill="#000000" fill-rule="nonzero" xlink:href="#path-1"></use>
        </g>
    </g>
</svg>