<?xml version="1.0" encoding="UTF-8"?>
<svg width="24px" height="24px" viewBox="0 0 24 24" version="1.1" xmlns="http://www.w3.org/2000/svg" xmlns:xlink="http://www.w3.org/1999/xlink">
    <!-- Generator: sketchtool 51 (57462) - http://www.bohemiancoding.com/sketch -->
    <title>maps-map-inactive</title>
    <desc>Created with sketchtool.</desc>
    <defs>
        <path d="M14.6550001,4.97999995 L9.65500011,3.22999995 C9.23500011,3.07999995 8.77500011,3.07999995 8.35500011,3.21999995 L4.36500011,4.55999995 C3.55500011,4.83999995 3.00500011,5.59999995 3.00500011,6.45999995 L3.00500011,18.3099999 C3.00500011,19.7199999 4.41500011,20.6799999 5.72500011,20.1699999 L8.65500011,19.0299999 C8.87500011,18.9399999 9.12500011,18.9399999 9.34500011,19.0199999 L14.3450001,20.7699999 C14.7650001,20.9199999 15.2250001,20.9199999 15.6450001,20.7799999 L19.6350001,19.4399999 C20.4450001,19.1699999 20.9950001,18.3999999 20.9950001,17.5399999 L20.9950001,5.68999995 C20.9950001,4.27999995 19.5850001,3.31999995 18.2750001,3.82999995 L15.3450001,4.96999995 C15.1250001,5.04999995 14.8850001,5.05999995 14.6550001,4.97999995 Z M13.9880565,18.5400424 L10.0016699,17.1313194 L10.0016699,5.47534638 L13.9880565,6.86319094 L13.9880565,18.5400424 Z M8.00066318,17.1313194 L5.00166989,18.3177439 L5.00166989,6.45215327 L8.00066318,5.47534638 L8.00066318,17.1313194 Z M19.0006632,17.5513873 L16.0016699,18.5646996 L16.0016699,6.86530441 L19.0006632,5.70430551 L19.0006632,17.5513873 Z" id="path-1"></path>
    </defs>
    <g id="Icons" stroke="none" stroke-width="1" fill="none" fill-rule="evenodd">
        <g id="maps-map-inactive">
            <mask id="mask-2" fill="white">
                <use xlink:href="#path-1"></use>
            </mask>
            <use id="icon_maps_map_24px" fill="#000000" fill-rule="nonzero" xlink:href="#path-1"></use>
        </g>
    </g>
</svg>