<?xml version="1.0" encoding="UTF-8"?>
<svg width="24px" height="24px" viewBox="0 0 24 24" version="1.1" xmlns="http://www.w3.org/2000/svg" xmlns:xlink="http://www.w3.org/1999/xlink">
    <!-- Generator: sketchtool 51 (57462) - http://www.bohemiancoding.com/sketch -->
    <title>maps-restaurant</title>
    <desc>Created with sketchtool.</desc>
    <defs>
        <path d="M16,6 L16,12 C16,13.1 16.9,14 18,14 L19,14 L19,21 C19,21.55 19.45,22 20,22 C20.55,22 21,21.55 21,21 L21,3.13 C21,2.48 20.39,2 19.76,2.15 C17.6,2.68 16,4.51 16,6 Z M11,9 L9,9 L9,3 C9,2.45 8.55,2 8,2 C7.45,2 7,2.45 7,3 L7,9 L5,9 L5,3 C5,2.45 4.55,2 4,2 C3.45,2 3,2.45 3,3 L3,9 C3,11.21 4.79,13 7,13 L7,21 C7,21.55 7.45,22 8,22 C8.55,22 9,21.55 9,21 L9,13 C11.21,13 13,11.21 13,9 L13,3 C13,2.45 12.55,2 12,2 C11.45,2 11,2.45 11,3 L11,9 Z" id="path-1"></path>
    </defs>
    <g id="Icons" stroke="none" stroke-width="1" fill="none" fill-rule="evenodd">
        <g id="maps-restaurant">
            <mask id="mask-2" fill="white">
                <use xlink:href="#path-1"></use>
            </mask>
            <use id="icon_maps_restaurant_24px" fill="#000000" fill-rule="nonzero" xlink:href="#path-1"></use>
        </g>
    </g>
</svg>