<?xml version="1.0" encoding="UTF-8"?>
<svg width="24px" height="24px" viewBox="0 0 24 24" version="1.1" xmlns="http://www.w3.org/2000/svg" xmlns:xlink="http://www.w3.org/1999/xlink">
    <!-- Generator: sketchtool 51 (57462) - http://www.bohemiancoding.com/sketch -->
    <title>maps-directions</title>
    <desc>Created with sketchtool.</desc>
    <defs>
        <path d="M22.425,10.5762562 L13.415,1.56625621 C12.665,0.816256208 11.345,0.806256208 10.585,1.56625621 L1.585,10.5662562 C0.805,11.3462562 0.805,12.6062562 1.585,13.3862562 L10.585,22.3862562 C10.975,22.7762562 11.485,22.9662562 11.995,22.9662562 C12.505,22.9662562 13.015,22.7762562 13.405,22.3862562 L22.395,13.3962562 C23.185,12.6362562 23.195,11.3762562 22.425,10.5762562 Z M12.005,20.9762562 L3.005,11.9762562 L12.005,2.97625621 L21.005,11.9762562 L12.005,20.9762562 Z M13.9875,14.4887418 L13.9875,11.9887418 L9.9875,11.9887418 L9.9875,13.9887418 C9.9875,14.5387418 9.5375,14.9887418 8.9875,14.9887418 C8.4375,14.9887418 7.9875,14.5387418 7.9875,13.9887418 L7.9875,10.9887418 C7.9875,10.4387418 8.4375,9.98874181 8.9875,9.98874181 L13.9875,9.98874181 L13.9875,7.48874181 L17.1375,10.6387418 C17.3375,10.8387418 17.3375,11.1487418 17.1375,11.3487418 L13.9875,14.4887418 Z" id="path-1"></path>
    </defs>
    <g id="Icons" stroke="none" stroke-width="1" fill="none" fill-rule="evenodd">
        <g id="maps-directions">
            <mask id="mask-2" fill="white">
                <use xlink:href="#path-1"></use>
            </mask>
            <use id="icon_maps_directions_24px" fill="#000000" fill-rule="nonzero" xlink:href="#path-1"></use>
        </g>
    </g>
</svg>