<?xml version="1.0" encoding="UTF-8"?>
<svg width="24px" height="24px" viewBox="0 0 24 24" version="1.1" xmlns="http://www.w3.org/2000/svg" xmlns:xlink="http://www.w3.org/1999/xlink">
    <!-- Generator: sketchtool 51 (57462) - http://www.bohemiancoding.com/sketch -->
    <title>maps-compass</title>
    <desc>Created with sketchtool.</desc>
    <defs>
        <path d="M9.33382038,3.66617962 L3.16732685,6.30905777 L6.69094223,9.83267315 L9.33382038,3.66617962 Z M10.8438945,0.84303436 C11.0954502,0.735220882 11.3802013,0.735220882 11.631757,0.84303436 C12.139384,1.0605966 12.3745279,1.64847859 12.1569656,2.15610554 L7.94738069,11.9781166 C7.89726671,12.095045 7.8253022,12.2013374 7.73534758,12.2912921 C7.34482329,12.6818164 6.71165831,12.6818164 6.32113402,12.2912921 L0.708707935,6.67886598 C0.618753316,6.58891136 0.54678881,6.48261891 0.496674825,6.36569049 C0.279112582,5.85806354 0.514256484,5.27018155 1.02188343,5.05261931 L10.8438945,0.84303436 Z" id="path-1"></path>
    </defs>
    <g id="Icons" stroke="none" stroke-width="1" fill="none" fill-rule="evenodd">
        <g id="maps-compass">
            <g id="Group" transform="translate(9.000000, 2.000000)">
                <mask id="mask-2" fill="white">
                    <use xlink:href="#path-1"></use>
                </mask>
                <use id="icon/maps/compass_24px" fill="#000000" fill-rule="nonzero" xlink:href="#path-1"></use>
            </g>
            <path d="M7.05261931,10.0218834 C7.10273329,9.90495501 7.1746978,9.79866255 7.26465242,9.70870794 C7.65517671,9.31818364 8.28834169,9.31818364 8.67886598,9.70870794 L14.2912921,15.321134 C14.3812467,15.4110886 14.4532112,15.5173811 14.5033252,15.6343095 C14.7208874,16.1419365 14.4857435,16.7298184 13.9781166,16.9473807 L4.15610554,21.1569656 C3.90454982,21.2647791 3.61979868,21.2647791 3.36824296,21.1569656 C2.86061602,20.9394034 2.62547212,20.3515214 2.84303436,19.8438945 L7.05261931,10.0218834 Z" id="Shape" fill="#000000"></path>
        </g>
    </g>
</svg>