<?xml version="1.0" encoding="UTF-8"?>
<svg width="24px" height="24px" viewBox="0 0 24 24" version="1.1" xmlns="http://www.w3.org/2000/svg" xmlns:xlink="http://www.w3.org/1999/xlink">
    <!-- Generator: sketchtool 51 (57462) - http://www.bohemiancoding.com/sketch -->
    <title>navigation-close</title>
    <desc>Created with sketchtool.</desc>
    <defs>
        <path d="M18.2999998,5.70999303 C18.1131683,5.52274035 17.8595174,5.41750742 17.5949998,5.41750742 C17.3304821,5.41750742 17.0768313,5.52274035 16.8899998,5.70999303 L11.9999998,10.589993 L7.10999979,5.69999303 C6.92316826,5.51274035 6.66951743,5.40750742 6.40499979,5.40750742 C6.14048215,5.40750742 5.88683132,5.51274035 5.69999979,5.69999303 C5.30999979,6.08999303 5.30999979,6.71999303 5.69999979,7.10999303 L10.5899998,11.999993 L5.69999979,16.889993 C5.30999979,17.279993 5.30999979,17.909993 5.69999979,18.299993 C6.08999979,18.689993 6.71999979,18.689993 7.10999979,18.299993 L11.9999998,13.409993 L16.8899998,18.299993 C17.2799998,18.689993 17.9099998,18.689993 18.2999998,18.299993 C18.6899998,17.909993 18.6899998,17.279993 18.2999998,16.889993 L13.4099998,11.999993 L18.2999998,7.10999303 C18.6799998,6.72999303 18.6799998,6.08999303 18.2999998,5.70999303 Z" id="path-1"></path>
    </defs>
    <g id="Icons" stroke="none" stroke-width="1" fill="none" fill-rule="evenodd">
        <g id="navigation-close">
            <mask id="mask-2" fill="white">
                <use xlink:href="#path-1"></use>
            </mask>
            <use id="icon_navigation_close_24px" fill="#000000" fill-rule="nonzero" xlink:href="#path-1"></use>
        </g>
    </g>
</svg>