<?xml version="1.0" encoding="UTF-8"?>
<svg width="24px" height="24px" viewBox="0 0 24 24" version="1.1" xmlns="http://www.w3.org/2000/svg" xmlns:xlink="http://www.w3.org/1999/xlink">
    <!-- Generator: sketchtool 51 (57462) - http://www.bohemiancoding.com/sketch -->
    <title>social-person-disabled</title>
    <desc>Created with sketchtool.</desc>
    <defs>
        <path d="M7.95537449,16.0280615 L7.95537449,15.2074171 C7.95537449,14.7299697 10.2904299,13.6407805 12.5061123,13.6407805 C12.5343663,13.6407805 12.5626644,13.6410895 12.5909624,13.6413985 L11.2711946,12.3207036 C9.2105556,12.615604 6.53790984,13.580476 6.53790984,15.2074171 L6.53790984,16.6994898 C6.53790984,17.1097899 6.87364607,17.445482 7.28394619,17.445482 L16.3923088,17.445482 L14.9758595,16.0280615 L7.95537449,16.0280615 Z M18.4742884,15.2074215 C18.4742884,14.1471042 17.3390099,13.3680461 15.9778324,12.8722778 L18.4742884,15.3705438 L18.4742884,15.2074215 Z M12.5061123,6.92653719 C13.3715216,6.92653719 14.0727489,7.62785286 14.0727489,8.49317379 C14.0727489,9.1617767 13.6540609,9.73202059 13.0646132,9.95699255 L14.1138054,11.0069353 C14.9414692,10.4766884 15.4902136,9.54960612 15.4902136,8.49317379 C15.4902136,6.84451248 14.1548178,5.50911669 12.5061123,5.50911669 C11.4504747,5.50911669 10.5240104,6.05706646 9.9935428,6.88367067 L11.042735,7.93361342 C11.2679719,7.34478374 11.8379509,6.92653719 12.5061123,6.92653719 M19.8878504,18.8612558 C19.8346536,18.8298674 19.7841497,18.7921661 19.7384577,18.74643 L18.2364962,17.2433648 L17.0220184,16.0280482 L15.0435365,14.0481095 L13.2594329,12.2627698 L12.4737086,11.4765157 L9.52276159,8.52344965 L5.23014993,4.22770357 C5.1887844,4.18633804 5.15395259,4.14104345 5.12437426,4.09336493 C4.83839145,3.92468011 4.46442412,3.96220487 4.21870317,4.20779337 C3.92724616,4.49902965 3.92706957,4.97135599 4.21834999,5.262813 L11.2711946,12.3207345 L12.5909624,13.6414294 L14.9758595,16.0280482 L16.3923088,17.4455129 L18.7266578,19.7815836 C19.0179382,20.0729965 19.4902646,20.0731731 19.7817216,19.7818926 C20.0318131,19.5320219 20.0667332,19.1491369 19.8878504,18.8612558" id="path-1"></path>
    </defs>
    <g id="Icons" stroke="none" stroke-width="1" fill="none" fill-rule="evenodd">
        <g id="social-person-disabled">
            <mask id="mask-2" fill="white">
                <use xlink:href="#path-1"></use>
            </mask>
            <use id="Combined-Shape" fill="#000000" xlink:href="#path-1"></use>
        </g>
    </g>
</svg>