<?xml version="1.0" encoding="UTF-8"?>
<svg width="24px" height="24px" viewBox="0 0 24 24" version="1.1" xmlns="http://www.w3.org/2000/svg" xmlns:xlink="http://www.w3.org/1999/xlink">
    <!-- Generator: sketchtool 51 (57462) - http://www.bohemiancoding.com/sketch -->
    <title>social-twitter</title>
    <desc>Created with sketchtool.</desc>
    <defs>
        <path d="M11.8098423,9.9972018 C11.8098423,9.9972018 9.33755293,10.5705417 6.57880611,7.34577027 C6.57880611,7.34577027 5.50395313,9.45977531 7.36720163,10.7494714 C7.36720163,10.7494714 6.75837328,10.8569992 6.25622271,10.4989274 C6.25622271,10.4989274 6.04116711,12.3260499 8.26269994,13.0426186 L7.08031916,13.0426186 C7.08031916,13.0426186 7.40311507,14.5116693 9.48099416,14.8340402 C9.48099416,14.8340402 8.62119678,15.9805076 5.82632402,15.9088932 C5.82632402,15.9088932 7.40311507,17.1269749 9.80379006,17.0910615 C9.80379006,17.0910615 14.2462182,17.3061171 16.3602232,12.289924 C16.8800118,11.0563294 16.8260354,9.889674 16.7901219,9.31612157 L18.1516449,8.09825236 L16.7901219,8.34900889 C16.7901219,8.34900889 17.7217462,7.66835367 17.8294865,7.02339938 L16.3245223,7.63244023 C16.3245223,7.63244023 15.1959054,6.61135115 13.278893,7.02339938 C13.2786805,7.02339938 11.5233848,7.38168371 11.8098423,9.9972018 Z M13.2109965,5.27865248 C14.5074581,5.02374194 15.6718194,5.20866388 16.6524059,5.6819228 C16.7058758,5.70772892 16.7575377,5.73374644 16.8073907,5.75986921 L17.7682973,5.3710019 C18.757922,4.97051271 19.8037687,5.80818825 19.6298536,6.86083715 C20.1011108,7.37853027 20.1758779,8.24352687 19.539005,8.8132036 L18.5534607,9.69476354 C18.5655533,10.7787482 18.4168847,11.7506233 17.9604094,12.8339589 C17.14661,14.7649737 15.9796533,16.2172477 14.5519776,17.2274084 C13.5428693,17.9414092 12.4631735,18.39478 11.3750594,18.6387499 C10.6717599,18.7964391 10.0751232,18.8456374 9.63612236,18.8346819 C8.29600882,18.84981 7.06161553,18.566391 5.96027943,18.0842813 C5.304992,17.7974293 4.82359031,17.5010838 4.53428875,17.2775964 C3.4884194,16.4696553 4.0838452,14.7953847 5.40500588,14.8292374 C5.65863375,14.8357362 5.89619351,14.8320179 6.11837324,14.8191277 C5.69768211,14.3203496 5.47437599,13.8187937 5.38368961,13.4060781 C5.35219379,13.26274 5.34433324,13.1206826 5.3571984,12.9835244 C5.26989162,12.8781927 5.18850872,12.7689031 5.11307261,12.6558444 C4.57851077,11.854678 4.42078842,11.0310611 4.4650622,10.3278064 C4.47017287,10.2583794 4.47017287,10.2583794 4.47477613,10.216805 C4.49881782,10.0125457 4.56444017,9.82817161 4.66080305,9.66848588 C4.37771367,8.76666263 4.44197588,7.85982025 4.70867677,7.00601377 C4.79541984,6.72831769 4.88674104,6.51112744 4.96085067,6.36536971 C5.40241205,5.49691328 6.58481198,5.35596518 7.21814809,6.09628835 C8.21534275,7.26193533 9.20031305,7.95499979 10.1397051,8.29083019 C10.2562489,8.3324943 10.3682142,8.36749372 10.4753226,8.39650946 C10.7743453,6.50901005 12.0167721,5.38010972 13.2109965,5.27865248 Z M6.82700549,9.29404879 C6.82727916,9.29402477 6.82584903,9.29419137 6.82403345,9.29442795 L6.82700549,9.29404879 Z" id="path-1"></path>
    </defs>
    <g id="Icons" stroke="none" stroke-width="1" fill="none" fill-rule="evenodd">
        <g id="social-twitter">
            <mask id="mask-2" fill="white">
                <use xlink:href="#path-1"></use>
            </mask>
            <use id="icon/social/twitter_24px" fill="#000000" fill-rule="nonzero" xlink:href="#path-1"></use>
        </g>
    </g>
</svg>