<?xml version="1.0" encoding="UTF-8"?>
<svg width="24px" height="24px" viewBox="0 0 24 24" version="1.1" xmlns="http://www.w3.org/2000/svg" xmlns:xlink="http://www.w3.org/1999/xlink">
    <!-- Generator: sketchtool 51 (57462) - http://www.bohemiancoding.com/sketch -->
    <title>social-instagram</title>
    <desc>Created with sketchtool.</desc>
    <defs>
        <path d="M12,7.83870968 C9.74193548,7.83870968 7.87096774,9.67741935 7.87096774,11.9677419 C7.87096774,14.2580645 9.70967742,16.0967742 12,16.0967742 C14.2903226,16.0967742 16.1290323,14.2258065 16.1290323,11.9677419 C16.1290323,9.70967742 14.2580645,7.83870968 12,7.83870968 Z M12,14.6129032 C10.5483871,14.6129032 9.35483871,13.4193548 9.35483871,11.9677419 C9.35483871,10.516129 10.5483871,9.32258065 12,9.32258065 C13.4516129,9.32258065 14.6451613,10.516129 14.6451613,11.9677419 C14.6451613,13.4193548 13.4516129,14.6129032 12,14.6129032 Z M16.2903226,8.67741935 C16.8069761,8.67741935 17.2258065,8.25858896 17.2258065,7.74193548 C17.2258065,7.22528201 16.8069761,6.80645161 16.2903226,6.80645161 C15.7736691,6.80645161 15.3548387,7.22528201 15.3548387,7.74193548 C15.3548387,8.25858896 15.7736691,8.67741935 16.2903226,8.67741935 Z M18.7096774,5.32258065 C17.8709677,4.4516129 16.6774194,4 15.3225806,4 L8.67741935,4 C5.87096774,4 4,5.87096774 4,8.67741935 L4,15.2903226 C4,16.6774194 4.4516129,17.8709677 5.35483871,18.7419355 C6.22580645,19.5806452 7.38709677,20 8.70967742,20 L15.2903226,20 C16.6774194,20 17.8387097,19.5483871 18.6774194,18.7419355 C19.5483871,17.9032258 20,16.7096774 20,15.3225806 L20,8.67741935 C20,7.32258065 19.5483871,6.16129032 18.7096774,5.32258065 Z M18.5806452,15.3225806 C18.5806452,16.3225806 18.2258065,17.1290323 17.6451613,17.6774194 C17.0645161,18.2258065 16.2580645,18.516129 15.2903226,18.516129 L8.70967742,18.516129 C7.74193548,18.516129 6.93548387,18.2258065 6.35483871,17.6774194 C5.77419355,17.0967742 5.48387097,16.2903226 5.48387097,15.2903226 L5.48387097,8.67741935 C5.48387097,7.70967742 5.77419355,6.90322581 6.35483871,6.32258065 C6.90322581,5.77419355 7.74193548,5.48387097 8.70967742,5.48387097 L15.3548387,5.48387097 C16.3225806,5.48387097 17.1290323,5.77419355 17.7096774,6.35483871 C18.2580645,6.93548387 18.5806452,7.74193548 18.5806452,8.67741935 L18.5806452,15.3225806 Z" id="path-1"></path>
    </defs>
    <g id="Icons" stroke="none" stroke-width="1" fill="none" fill-rule="evenodd">
        <g id="social-instagram">
            <mask id="mask-2" fill="white">
                <use xlink:href="#path-1"></use>
            </mask>
            <use id="icon_social_instagram_24px" fill="#000000" fill-rule="nonzero" xlink:href="#path-1"></use>
        </g>
    </g>
</svg>