<?xml version="1.0" encoding="UTF-8"?>
<svg width="24px" height="24px" viewBox="0 0 24 24" version="1.1" xmlns="http://www.w3.org/2000/svg" xmlns:xlink="http://www.w3.org/1999/xlink">
    <!-- Generator: sketchtool 51 (57462) - http://www.bohemiancoding.com/sketch -->
    <title>social-person-done</title>
    <desc>Created with sketchtool.</desc>
    <defs>
        <path d="M15,5.9 C16.16,5.9 17.1,6.84 17.1,8 C17.1,9.16 16.16,10.1 15,10.1 C13.84,10.1 12.9,9.16 12.9,8 C12.9,6.84 13.84,5.9 15,5.9 Z M15,4 C12.79,4 11,5.79 11,8 C11,10.21 12.79,12 15,12 C17.21,12 19,10.21 19,8 C19,5.79 17.21,4 15,4 Z M15,13 C17.67,13 23,14.34 23,17 L23,19 C23,19.55 22.55,20 22,20 L7.99999999,20 C7.44999999,20 6.99999999,19.55 6.99999999,19 L6.99999999,17 C6.99999999,14.34 12.33,13 15,13 Z M15,14.9 C12.03,14.9 8.89999999,16.36 8.89999999,17 L8.89999999,18.1 L21.1,18.1 L21.1,17 C21.1,16.36 17.97,14.9 15,14.9 Z M8.34434417,7.34096897 L8.41185481,7.40847961 C8.70440091,7.70102571 8.70440091,8.17360019 8.41185481,8.46614629 L4.22619515,12.6593071 C3.93364905,12.9518532 3.46107457,12.9518532 3.16852846,12.6593071 L0.85066317,10.3414418 C0.710201528,10.2012961 0.631264389,10.011028 0.631264389,9.81260849 C0.631264389,9.61418899 0.710201528,9.42392088 0.85066317,9.28377515 L0.91817381,9.21626451 C1.21071991,8.92371841 1.68329439,8.92371841 1.9758405,9.21626451 L3.7011124,10.9415364 L7.28667748,7.34847015 C7.57172241,7.04842286 8.05179806,7.04842286 8.34434417,7.34096897 Z" id="path-1"></path>
    </defs>
    <g id="Icons" stroke="none" stroke-width="1" fill="none" fill-rule="evenodd">
        <g id="social-person-done">
            <mask id="mask-2" fill="white">
                <use xlink:href="#path-1"></use>
            </mask>
            <use id="icon_social_person_add_24px" fill="#000000" fill-rule="nonzero" xlink:href="#path-1"></use>
        </g>
    </g>
</svg>